<svg width="80" height="80" viewBox="0 0 80 80" fill="none" xmlns="http://www.w3.org/2000/svg" xmlns:xlink="http://www.w3.org/1999/xlink">
<mask id="mask_0_i_1_2867;1_2837" style="mask-type:alpha" maskUnits="userSpaceOnUse" x="0" y="0" width="40" height="40">
<rect  x="0" y="0" width="80" height="80" fill="#D9D9D9"/>
</mask>
<path d="M22.749,71.167L22.749,27.084L41.832,8.167C42.777,7.167 43.901,6.569 45.205,6.374C46.512,6.18 47.777,6.361 48.999,6.917C50.165,7.528 51.027,8.417 51.582,9.584C52.138,10.75 52.249,11.973 51.915,13.25L48.415,27.084L69.582,27.084C71.582,27.084 73.347,27.847 74.875,29.374C76.402,30.903 77.165,32.667 77.165,34.667L77.165,40.084C77.165,40.528 77.11,40.987 76.999,41.46C76.888,41.931 76.777,42.361 76.665,42.75L66.499,66.584C65.943,67.861 64.999,68.945 63.665,69.834C62.332,70.723 60.943,71.167 59.499,71.167L22.749,71.167ZM29.999,30.584L29.999,63.584L59.499,63.584L69.499,40.084L69.499,34.667L38.999,34.667L43.249,17.334L29.999,30.584ZM13.332,71.167C11.221,71.167 9.43,70.431 7.959,68.96C6.485,67.487 5.749,65.695 5.749,63.584L5.749,34.667C5.749,32.556 6.485,30.764 7.959,29.29C9.43,27.819 11.221,27.084 13.332,27.084L22.749,27.084L22.749,34.667L13.332,34.667L13.332,63.584L22.749,63.584L22.749,71.167L13.332,71.167Z" fill="#AAAAAA"/>
</svg>
