<svg width="80" height="80" viewBox="0 0 80 80" fill="none" xmlns="http://www.w3.org/2000/svg" xmlns:xlink="http://www.w3.org/1999/xlink">
<mask id="mask_0_i_1_2849;1_2770" style="mask-type:alpha" maskUnits="userSpaceOnUse" x="0" y="0" width="40" height="40">
<rect  x="0" y="0" width="80" height="80" fill="#D9D9D9"/>
</mask>
<path d="M60.916,73.916L19.084,73.916C17.361,73.916 15.875,73.291 14.624,72.042C13.375,70.791 12.75,69.305 12.75,67.584L12.75,12.416C12.75,10.695 13.375,9.209 14.624,7.958C15.875,6.709 17.361,6.084 19.084,6.084L44.334,6.084C45.167,6.084 45.973,6.251 46.75,6.584C47.527,6.917 48.222,7.389 48.834,8L65.334,24.5C65.945,25.111 66.417,25.805 66.75,26.584C67.083,27.361 67.25,28.167 67.25,29L67.25,67.584C67.25,69.305 66.625,70.791 65.376,72.042C64.125,73.291 62.639,73.916 60.916,73.916ZM60.916,67.584L60.916,29.166L44.166,12.416L19.084,12.416L19.084,67.584L60.916,67.584Z" fill="#AAAAAA"/>
<path d="M39.101,58C38.578,58 38.15,57.825 37.819,57.476C37.487,57.128 37.321,56.692 37.321,56.168L37.321,53.551C35.646,53.236 34.207,52.626 33.004,51.719C31.799,50.812 30.848,49.626 30.151,48.16C29.941,47.706 29.95,47.226 30.177,46.721C30.403,46.215 30.778,45.857 31.301,45.648C31.755,45.438 32.218,45.438 32.689,45.648C33.16,45.857 33.535,46.206 33.814,46.694C34.408,47.776 35.184,48.596 36.144,49.154C37.103,49.712 38.21,49.992 39.467,49.992C41.037,49.992 42.328,49.617 43.341,48.866C44.352,48.116 44.858,47.06 44.858,45.699C44.858,44.304 44.405,43.214 43.498,42.428C42.59,41.643 40.793,40.815 38.106,39.942C35.454,39.105 33.526,38.014 32.323,36.671C31.118,35.328 30.516,33.662 30.516,31.673C30.516,29.648 31.162,27.982 32.453,26.674C33.745,25.365 35.367,24.606 37.321,24.397L37.321,21.832C37.321,21.308 37.487,20.872 37.819,20.524C38.15,20.175 38.578,20 39.101,20C39.625,20 40.06,20.175 40.409,20.524C40.758,20.872 40.933,21.308 40.933,21.832L40.933,24.397C42.224,24.606 43.367,25.016 44.361,25.627C45.356,26.237 46.184,27.013 46.847,27.956C47.161,28.374 47.222,28.837 47.03,29.344C46.838,29.849 46.481,30.207 45.957,30.416C45.539,30.626 45.085,30.643 44.597,30.468C44.108,30.294 43.672,29.997 43.288,29.579C42.8,29.02 42.224,28.601 41.561,28.322C40.897,28.043 40.095,27.904 39.153,27.904C37.618,27.904 36.431,28.244 35.594,28.924C34.756,29.605 34.338,30.504 34.338,31.62C34.338,32.841 34.835,33.818 35.83,34.551C36.824,35.283 38.7,36.068 41.456,36.906C43.864,37.674 45.67,38.773 46.873,40.203C48.077,41.635 48.68,43.414 48.68,45.542C48.68,47.845 47.999,49.668 46.638,51.012C45.277,52.356 43.376,53.22 40.933,53.603L40.933,56.168C40.933,56.692 40.758,57.128 40.409,57.476C40.06,57.825 39.625,58 39.101,58Z" fill="#AAAAAA"/>
</svg>
