<svg width="80" height="80" viewBox="0 0 80 80" fill="none" xmlns="http://www.w3.org/2000/svg" xmlns:xlink="http://www.w3.org/1999/xlink">
<mask id="mask_0_i_1_2857;1_2803" style="mask-type:alpha" maskUnits="userSpaceOnUse" x="0" y="0" width="40" height="40">
<rect  x="0" y="0" width="80" height="80" fill="#D9D9D9"/>
</mask>
<path d="M40,63.833C38.945,63.833 38.042,63.458 37.293,62.707C36.542,61.958 36.167,61.055 36.167,60L36.167,43.833L20,43.833C18.945,43.833 18.042,43.458 17.293,42.707C16.542,41.958 16.167,41.055 16.167,40C16.167,38.944 16.542,38.042 17.293,37.293C18.042,36.542 18.945,36.167 20,36.167L36.167,36.167L36.167,20C36.167,18.944 36.542,18.041 37.293,17.29C38.042,16.541 38.945,16.167 40,16.167C41.056,16.167 41.958,16.541 42.707,17.29C43.458,18.041 43.833,18.944 43.833,20L43.833,36.167L60,36.167C61.056,36.167 61.958,36.542 62.707,37.293C63.458,38.042 63.833,38.944 63.833,40C63.833,41.055 63.458,41.958 62.707,42.707C61.958,43.458 61.056,43.833 60,43.833L43.833,43.833L43.833,60C43.833,61.055 43.458,61.958 42.707,62.707C41.958,63.458 41.056,63.833 40,63.833Z" fill="#AAAAAA"/>
</svg>
