<svg width="80" height="80" viewBox="0 0 80 80" fill="none" xmlns="http://www.w3.org/2000/svg" xmlns:xlink="http://www.w3.org/1999/xlink">
<mask id="mask_0_i_1_2845;1_2758" style="mask-type:alpha" maskUnits="userSpaceOnUse" x="0" y="0" width="40" height="40">
<rect  x="0" y="0" width="80" height="80" fill="#D9D9D9"/>
</mask>
<path d="M5.834,67.5C4.945,67.5 4.208,67.195 3.624,66.584C3.041,65.972 2.75,65.222 2.75,64.334L2.75,58.584C2.75,56.528 3.264,54.667 4.292,53C5.32,51.333 6.751,50.083 8.584,49.25C12.472,47.473 16.111,46.181 19.5,45.376C22.889,44.569 26.361,44.166 29.916,44.166C33.528,44.166 37.015,44.569 40.376,45.376C43.736,46.181 47.361,47.473 51.25,49.25C53.083,50.083 54.528,51.333 55.584,53C56.639,54.667 57.166,56.528 57.166,58.584L57.166,64.334C57.166,65.222 56.861,65.972 56.25,66.584C55.639,67.195 54.889,67.5 54,67.5L5.834,67.5ZM61.084,67.5C61.639,67.277 62.097,66.875 62.458,66.292C62.819,65.708 63,65.027 63,64.25L63,58.416C63,55.195 62.181,52.431 60.542,50.124C58.903,47.819 56.695,45.861 53.916,44.25C57.305,44.694 60.5,45.333 63.5,46.166C66.5,46.999 69.028,47.944 71.084,49C73.028,50.111 74.541,51.472 75.624,53.084C76.708,54.695 77.25,56.5 77.25,58.5L77.25,64.334C77.25,65.222 76.959,65.972 76.376,66.584C75.792,67.195 75.055,67.5 74.166,67.5L61.084,67.5ZM29.916,39.666C26.195,39.666 23.097,38.43 20.624,35.958C18.152,33.486 16.916,30.361 16.916,26.584C16.916,22.861 18.152,19.764 20.624,17.292C23.097,14.82 26.195,13.584 29.916,13.584C33.695,13.584 36.82,14.82 39.292,17.292C41.764,19.764 43,22.861 43,26.584C43,30.361 41.764,33.486 39.292,35.958C36.82,38.43 33.695,39.666 29.916,39.666ZM61.834,26.584C61.834,30.361 60.597,33.486 58.124,35.958C55.652,38.43 52.555,39.666 48.834,39.666C48.167,39.666 47.445,39.611 46.666,39.5C45.889,39.389 45.167,39.223 44.5,39C45.889,37.444 46.959,35.611 47.708,33.5C48.459,31.389 48.834,29.084 48.834,26.584C48.834,24.084 48.459,21.82 47.708,19.792C46.959,17.764 45.889,15.889 44.5,14.166C45.167,13.999 45.875,13.861 46.624,13.75C47.375,13.639 48.111,13.584 48.834,13.584C52.555,13.584 55.652,14.82 58.124,17.292C60.597,19.764 61.834,22.861 61.834,26.584ZM9,61.166L50.834,61.166L50.834,58.666C50.834,57.889 50.611,57.139 50.166,56.416C49.722,55.695 49.167,55.195 48.5,54.916C44.889,53.249 41.681,52.097 38.876,51.458C36.069,50.819 33.083,50.5 29.916,50.5C26.805,50.5 23.833,50.819 21,51.458C18.167,52.097 14.945,53.249 11.334,54.916C10.667,55.195 10.111,55.695 9.666,56.416C9.222,57.139 9,57.889 9,58.666L9,61.166ZM29.916,33.584C31.916,33.584 33.583,32.917 34.916,31.584C36.249,30.251 36.916,28.584 36.916,26.584C36.916,24.584 36.249,22.917 34.916,21.584C33.583,20.251 31.916,19.584 29.916,19.584C27.916,19.584 26.249,20.251 24.916,21.584C23.583,22.917 22.916,24.584 22.916,26.584C22.916,28.584 23.583,30.251 24.916,31.584C26.249,32.917 27.916,33.584 29.916,33.584Z" fill="#AAAAAA"/>
</svg>
