<svg width="80" height="80" viewBox="0 0 80 80" fill="none" xmlns="http://www.w3.org/2000/svg" xmlns:xlink="http://www.w3.org/1999/xlink">
<mask id="mask_0_i_1_2846;1_2761" style="mask-type:alpha" maskUnits="userSpaceOnUse" x="0" y="0" width="40" height="40">
<rect  x="0" y="0" width="80" height="80" fill="#D9D9D9"/>
</mask>
<path d="M29.5,59.5L50.5,59.5C51.333,59.5 52.028,59.222 52.584,58.666C53.139,58.111 53.416,57.417 53.416,56.584C53.416,55.751 53.139,55.056 52.584,54.5C52.028,53.944 51.333,53.666 50.5,53.666L29.5,53.666C28.667,53.666 27.972,53.944 27.416,54.5C26.861,55.056 26.584,55.751 26.584,56.584C26.584,57.417 26.861,58.111 27.416,58.666C27.972,59.222 28.667,59.5 29.5,59.5ZM29.5,45.584L50.5,45.584C51.333,45.584 52.028,45.306 52.584,44.75C53.139,44.194 53.416,43.499 53.416,42.666C53.416,41.833 53.139,41.152 52.584,40.624C52.028,40.097 51.333,39.834 50.5,39.834L29.5,39.834C28.667,39.834 27.972,40.111 27.416,40.666C26.861,41.222 26.584,41.889 26.584,42.666C26.584,43.499 26.861,44.194 27.416,44.75C27.972,45.306 28.667,45.584 29.5,45.584ZM19.084,73.916C17.361,73.916 15.875,73.291 14.624,72.042C13.375,70.791 12.75,69.305 12.75,67.584L12.75,12.416C12.75,10.695 13.375,9.209 14.624,7.958C15.875,6.709 17.361,6.084 19.084,6.084L45.416,6.084C46.305,6.084 47.139,6.251 47.916,6.584C48.695,6.917 49.361,7.389 49.916,8L65.334,23.416C65.945,23.972 66.417,24.639 66.75,25.416C67.083,26.195 67.25,27.028 67.25,27.916L67.25,67.584C67.25,69.305 66.625,70.791 65.376,72.042C64.125,73.291 62.639,73.916 60.916,73.916L19.084,73.916ZM44.834,25.166L44.834,12.416L19.084,12.416L19.084,67.584L60.916,67.584L60.916,28.334L48,28.334C47.111,28.334 46.361,28.028 45.75,27.416C45.139,26.805 44.834,26.055 44.834,25.166Z" fill="#AAAAAA"/>
</svg>
