<svg width="80" height="80" viewBox="0 0 80 80" fill="none" xmlns="http://www.w3.org/2000/svg" xmlns:xlink="http://www.w3.org/1999/xlink">
<mask id="mask_0_i_1_2866;1_2834" style="mask-type:alpha" maskUnits="userSpaceOnUse" x="0" y="0" width="40" height="40">
<rect  x="0" y="80" width="80" height="80" transform="rotate(-180 0 80)" fill="#D9D9D9"/>
</mask>
<path d="M39.999,67.58C38.11,67.58 36.471,66.9 35.082,65.54C33.693,64.178 32.999,62.525 32.999,60.58C32.999,58.692 33.693,57.066 35.082,55.704C36.471,54.344 38.11,53.664 39.999,53.664C41.943,53.664 43.596,54.344 44.959,55.704C46.319,57.066 46.999,58.692 46.999,60.58C46.999,62.525 46.319,64.178 44.959,65.54C43.596,66.9 41.943,67.58 39.999,67.58ZM39.999,46.997C38.11,46.997 36.471,46.303 35.082,44.914C33.693,43.525 32.999,41.886 32.999,39.997C32.999,38.053 33.693,36.399 35.082,35.037C36.471,33.677 38.11,32.997 39.999,32.997C41.943,32.997 43.596,33.677 44.959,35.037C46.319,36.399 46.999,38.053 46.999,39.997C46.999,41.886 46.319,43.525 44.959,44.914C43.596,46.303 41.943,46.997 39.999,46.997ZM39.999,26.33C38.11,26.33 36.471,25.649 35.082,24.287C33.693,22.927 32.999,21.303 32.999,19.414C32.999,17.469 33.693,15.816 35.082,14.454C36.471,13.094 38.11,12.414 39.999,12.414C41.943,12.414 43.596,13.094 44.959,14.454C46.319,15.816 46.999,17.469 46.999,19.414C46.999,21.303 46.319,22.927 44.959,24.287C43.596,25.649 41.943,26.33 39.999,26.33Z" transform="rotate(-180 39.999 39.997)" fill="#AAAAAA"/>
</svg>
