<svg width="80" height="80" viewBox="0 0 80 80" fill="none" xmlns="http://www.w3.org/2000/svg" xmlns:xlink="http://www.w3.org/1999/xlink">
<mask id="mask_0_i_1_2850;1_2774" style="mask-type:alpha" maskUnits="userSpaceOnUse" x="0" y="0" width="40" height="40">
<rect  x="0" y="0" width="80" height="80" fill="#D9D9D9"/>
</mask>
<path d="M60.166,73.832L18.334,73.832C16.611,73.832 15.125,73.207 13.874,71.958C12.625,70.707 12,69.221 12,67.5L12,12.332C12,10.611 12.625,9.125 13.874,7.874C15.125,6.625 16.611,6 18.334,6L43.584,6C44.417,6 45.223,6.167 46,6.5C46.777,6.833 47.472,7.305 48.084,7.916L64.584,24.416C65.195,25.027 65.667,25.721 66,26.5C66.333,27.277 66.5,28.083 66.5,28.916L66.5,67.5C66.5,69.221 65.875,70.707 64.626,71.958C63.375,73.207 61.889,73.832 60.166,73.832ZM37.819,59.476C38.15,59.825 38.578,60 39.101,60C39.625,60 40.06,59.825 40.409,59.476C40.758,59.128 40.933,58.692 40.933,58.168L40.933,55.603C43.376,55.22 45.277,54.356 46.638,53.012C47.999,51.668 48.68,49.845 48.68,47.542C48.68,45.414 48.077,43.635 46.873,42.203C45.67,40.773 43.864,39.674 41.456,38.906C38.7,38.068 36.824,37.283 35.83,36.551C34.835,35.818 34.338,34.841 34.338,33.62C34.338,32.503 34.756,31.605 35.594,30.924C36.431,30.244 37.618,29.904 39.153,29.904C40.095,29.904 40.897,30.043 41.561,30.322C42.224,30.601 42.8,31.02 43.288,31.579C43.672,31.997 44.108,32.294 44.597,32.468C45.085,32.643 45.539,32.626 45.957,32.416C46.481,32.207 46.838,31.849 47.03,31.344C47.222,30.837 47.161,30.374 46.847,29.956C46.184,29.013 45.356,28.237 44.361,27.627C43.367,27.016 42.224,26.606 40.933,26.397L40.933,23.832C40.933,23.308 40.758,22.872 40.409,22.524C40.06,22.175 39.625,22 39.101,22C38.578,22 38.15,22.175 37.819,22.524C37.487,22.872 37.321,23.308 37.321,23.832L37.321,26.397C35.367,26.606 33.745,27.365 32.453,28.674C31.162,29.982 30.516,31.648 30.516,33.673C30.516,35.662 31.118,37.328 32.323,38.671C33.526,40.014 35.454,41.105 38.106,41.942C40.793,42.815 42.59,43.643 43.498,44.428C44.405,45.214 44.858,46.304 44.858,47.699C44.858,49.06 44.352,50.116 43.341,50.866C42.328,51.617 41.037,51.992 39.467,51.992C38.21,51.992 37.103,51.712 36.144,51.154C35.184,50.596 34.408,49.776 33.814,48.694C33.535,48.206 33.16,47.857 32.689,47.648C32.218,47.438 31.755,47.438 31.301,47.648C30.778,47.857 30.403,48.215 30.177,48.721C29.95,49.226 29.941,49.706 30.151,50.16C30.848,51.626 31.799,52.812 33.004,53.719C34.207,54.626 35.646,55.236 37.321,55.551L37.321,58.168C37.321,58.692 37.487,59.128 37.819,59.476Z" clip-rule="evenodd" fill-rule="evenodd" fill="#1CD2AD"/>
</svg>
