<svg width="80" height="80" viewBox="0 0 80 80" fill="none" xmlns="http://www.w3.org/2000/svg" xmlns:xlink="http://www.w3.org/1999/xlink">
<mask id="mask_0_i_1_2864;1_2824" style="mask-type:alpha" maskUnits="userSpaceOnUse" x="0" y="0" width="40" height="40">
<rect  x="0" y="0" width="80" height="80" fill="#D9D9D9"/>
</mask>
<path d="M45.916,73.916L34.084,73.916C33.305,73.916 32.625,73.652 32.042,73.124C31.458,72.597 31.111,71.945 31,71.166L29.75,63.166C28.917,62.833 28.041,62.403 27.124,61.876C26.208,61.348 25.389,60.806 24.666,60.25L17.166,63.584C16.445,63.917 15.695,63.959 14.916,63.708C14.139,63.459 13.555,62.973 13.166,62.25L7.25,51.834C6.861,51.167 6.749,50.445 6.916,49.666C7.083,48.889 7.499,48.25 8.166,47.75L14.834,42.75C14.778,42.361 14.736,41.916 14.708,41.416C14.68,40.916 14.666,40.444 14.666,40C14.666,39.556 14.68,39.084 14.708,38.584C14.736,38.084 14.778,37.639 14.834,37.25L8.166,32.25C7.499,31.75 7.083,31.111 6.916,30.334C6.749,29.555 6.861,28.833 7.25,28.166L13.166,17.75C13.555,17.027 14.139,16.555 14.916,16.334C15.695,16.111 16.445,16.139 17.166,16.416L24.666,19.75C25.389,19.194 26.208,18.653 27.124,18.126C28.041,17.598 28.917,17.195 29.75,16.916L31,8.75C31.111,7.973 31.458,7.334 32.042,6.834C32.625,6.334 33.305,6.084 34.084,6.084L45.916,6.084C46.695,6.084 47.375,6.334 47.958,6.834C48.542,7.334 48.889,7.973 49,8.75L50.25,16.834C51.083,17.167 51.972,17.598 52.916,18.126C53.861,18.653 54.667,19.194 55.334,19.75L62.834,16.416C63.555,16.139 64.305,16.111 65.084,16.334C65.861,16.555 66.445,17.027 66.834,17.75L72.75,28.084C73.194,28.805 73.319,29.555 73.124,30.334C72.931,31.111 72.501,31.75 71.834,32.25L65.084,37.166C65.195,37.611 65.264,38.084 65.292,38.584C65.32,39.084 65.334,39.556 65.334,40C65.334,40.444 65.32,40.916 65.292,41.416C65.264,41.916 65.195,42.389 65.084,42.834L71.834,47.75C72.445,48.25 72.847,48.889 73.042,49.666C73.237,50.445 73.139,51.167 72.75,51.834L66.834,62.166C66.389,62.945 65.791,63.459 65.042,63.708C64.291,63.959 63.527,63.917 62.75,63.584L55.334,60.25C54.611,60.806 53.805,61.361 52.916,61.916C52.028,62.472 51.139,62.889 50.25,63.166L49,71.166C48.889,71.945 48.542,72.597 47.958,73.124C47.375,73.652 46.695,73.916 45.916,73.916ZM40,51.084C43.056,51.084 45.667,50.001 47.834,47.834C50.001,45.667 51.084,43.056 51.084,40C51.084,36.944 50.001,34.333 47.834,32.166C45.667,29.999 43.056,28.916 40,28.916C36.944,28.916 34.333,29.999 32.166,32.166C29.999,34.333 28.916,36.944 28.916,40C28.916,43.056 29.999,45.667 32.166,47.834C34.333,50.001 36.944,51.084 40,51.084Z" fill="#1CD2AD"/>
</svg>
