<svg width="80" height="80" viewBox="0 0 80 80" fill="none" xmlns="http://www.w3.org/2000/svg" xmlns:xlink="http://www.w3.org/1999/xlink">
<path d="M32.615,74L45.364,74C46.302,74 47.117,73.69 47.808,73.071C48.381,72.554 48.773,71.934 48.984,71.212L42.226,64.761L41.97,66.64L35.926,66.64L34.85,58.147C33.084,57.716 31.456,57.069 29.966,56.206C28.475,55.343 27.096,54.292 25.826,53.051L17.713,56.368L14.733,51.272L21.77,46.096C21.494,45.233 21.287,44.383 21.151,43.546C21.012,42.711 20.942,41.863 20.942,41C20.942,40.083 21.012,39.208 21.151,38.373C21.287,37.536 21.494,36.713 21.77,35.904L14.733,30.728L17.713,25.632L25.826,28.949C27.096,27.708 28.475,26.657 29.966,25.794C31.456,24.931 33.084,24.284 34.85,23.853L35.926,15.36L42.052,15.36L43.129,23.853C44.895,24.284 46.523,24.931 48.013,25.794C49.503,26.657 50.855,27.735 52.069,29.029L55.456,27.626L63.86,17.818C63.619,17.684 63.359,17.579 63.08,17.502C62.197,17.26 61.314,17.301 60.431,17.625L53.394,20.456C52.842,20.078 52.304,19.728 51.781,19.404C51.256,19.081 50.662,18.811 50,18.596L49.089,11.235C48.924,10.265 48.496,9.483 47.808,8.89C47.117,8.297 46.302,8 45.364,8L32.615,8C31.677,8 30.863,8.297 30.174,8.89C29.483,9.483 29.055,10.265 28.889,11.235L27.979,18.596C27.372,18.811 26.792,19.081 26.24,19.404C25.688,19.728 25.164,20.078 24.667,20.456L17.548,17.625C16.665,17.301 15.768,17.26 14.859,17.502C13.947,17.746 13.271,18.272 12.829,19.081L6.537,29.838C6.041,30.647 5.888,31.51 6.08,32.426C6.275,33.343 6.73,34.071 7.448,34.61L13.491,39.14L13.491,42.86L7.448,47.39C6.73,47.929 6.275,48.657 6.08,49.574C5.888,50.49 6.041,51.353 6.537,52.162L12.829,62.919C13.326,63.728 14.016,64.267 14.899,64.537C15.782,64.806 16.665,64.779 17.548,64.456L24.585,61.544C25.136,61.922 25.674,62.272 26.197,62.596C26.723,62.919 27.316,63.216 27.979,63.485L28.889,70.765C29.055,71.681 29.483,72.45 30.174,73.071C30.863,73.69 31.677,74 32.615,74Z" clip-rule="evenodd" fill-rule="evenodd" fill="#AAAAAA"/>
<path d="M42.655,59.989C42.125,59.989 41.624,59.901 41.154,59.724C40.683,59.548 40.241,59.254 39.829,58.842L24.642,43.655C23.877,42.889 23.51,41.932 23.54,40.783C23.569,39.637 23.965,38.681 24.731,37.915C25.496,37.15 26.453,36.768 27.602,36.768C28.749,36.768 29.675,37.15 30.381,37.915L42.655,50.189L72.234,20.609C72.94,19.844 73.882,19.462 75.059,19.462C76.236,19.462 77.208,19.844 77.973,20.609C78.679,21.375 79.032,22.331 79.032,23.477C79.032,24.626 78.679,25.583 77.973,26.349L45.48,58.842C45.068,59.254 44.627,59.548 44.156,59.724C43.685,59.901 43.184,59.989 42.655,59.989Z" fill="#AAAAAA"/>
</svg>
