<svg width="80" height="80" viewBox="0 0 80 80" fill="none" xmlns="http://www.w3.org/2000/svg" xmlns:xlink="http://www.w3.org/1999/xlink">
<mask id="mask_0_i_1_2853;1_2787" style="mask-type:alpha" maskUnits="userSpaceOnUse" x="0" y="0" width="40" height="40">
<rect  x="0" y="0" width="80" height="80" fill="#D9D9D9"/>
</mask>
<path d="M46.417,74L33.583,74C32.639,74 31.82,73.681 31.127,73.043C30.431,72.403 30,71.611 29.833,70.667L28.917,63.167C28.25,62.889 27.652,62.583 27.123,62.25C26.597,61.917 26.056,61.556 25.5,61.167L18.417,64.167C17.528,64.5 16.639,64.528 15.75,64.25C14.861,63.972 14.167,63.417 13.667,62.583L7.333,51.5C6.833,50.667 6.68,49.778 6.873,48.833C7.069,47.889 7.528,47.139 8.25,46.583L14.333,41.917L14.333,38.083L8.25,33.417C7.528,32.861 7.069,32.111 6.873,31.167C6.68,30.222 6.833,29.333 7.333,28.5L13.667,17.417C14.111,16.583 14.792,16.041 15.71,15.79C16.626,15.541 17.528,15.583 18.417,15.917L25.583,18.833C26.083,18.444 26.611,18.083 27.167,17.75C27.722,17.417 28.305,17.139 28.917,16.917L29.833,9.333C30,8.333 30.431,7.528 31.127,6.917C31.82,6.306 32.639,6 33.583,6L46.417,6C47.361,6 48.181,6.306 48.877,6.917C49.57,7.528 50,8.333 50.167,9.333L51.083,16.917C51.75,17.139 52.348,17.417 52.877,17.75C53.403,18.083 53.944,18.444 54.5,18.833L61.583,15.917C62.472,15.583 63.361,15.541 64.25,15.79C65.139,16.041 65.833,16.583 66.333,17.417L72.667,28.5C73.167,29.333 73.333,30.222 73.167,31.167C73,32.111 72.528,32.861 71.75,33.417L65.583,38.083C65.639,38.417 65.667,38.736 65.667,39.04L65.667,40.957C65.667,41.263 65.611,41.583 65.5,41.917L71.667,46.583C72.389,47.139 72.848,47.889 73.043,48.833C73.237,49.778 73.083,50.667 72.583,51.5L66.25,62.5C65.75,63.333 65.042,63.902 64.127,64.207C63.209,64.513 62.305,64.5 61.417,64.167L54.417,61.167C53.917,61.556 53.389,61.917 52.833,62.25C52.278,62.583 51.694,62.889 51.083,63.167L50.167,70.667C50,71.611 49.57,72.403 48.877,73.043C48.181,73.681 47.361,74 46.417,74ZM40.083,51.667C43.305,51.667 46.055,50.528 48.333,48.25C50.611,45.972 51.75,43.222 51.75,40C51.75,36.778 50.611,34.028 48.333,31.75C46.055,29.472 43.305,28.333 40.083,28.333C36.861,28.333 34.111,29.472 31.833,31.75C29.555,34.028 28.417,36.778 28.417,40C28.417,43.222 29.555,45.972 31.833,48.25C34.111,50.528 36.861,51.667 40.083,51.667ZM40.083,45C38.694,45 37.514,44.513 36.543,43.54C35.57,42.569 35.083,41.389 35.083,40C35.083,38.611 35.57,37.431 36.543,36.46C37.514,35.487 38.694,35 40.083,35C41.472,35 42.653,35.487 43.627,36.46C44.598,37.431 45.083,38.611 45.083,40C45.083,41.389 44.598,42.569 43.627,43.54C42.653,44.513 41.472,45 40.083,45ZM36.917,66.417L43,66.417L44.167,57.667C45.944,57.222 47.583,56.556 49.083,55.667C50.583,54.778 51.944,53.694 53.167,52.417L61.417,55.833L64.417,50.583L57.25,45.167C57.528,44.389 57.737,43.556 57.877,42.667C58.014,41.778 58.083,40.889 58.083,40C58.083,39.111 58.014,38.222 57.877,37.333C57.737,36.444 57.528,35.611 57.25,34.833L64.417,29.417L61.417,24.167L53.167,27.667C51.944,26.333 50.583,25.222 49.083,24.333C47.583,23.444 45.944,22.778 44.167,22.333L43.083,13.583L36.917,13.583L35.833,22.333C34.055,22.778 32.417,23.444 30.917,24.333C29.417,25.222 28.028,26.306 26.75,27.583L18.583,24.167L15.583,29.417L22.667,34.75C22.389,35.583 22.181,36.431 22.043,37.293C21.903,38.153 21.833,39.056 21.833,40C21.833,40.889 21.903,41.763 22.043,42.623C22.181,43.486 22.389,44.361 22.667,45.25L15.583,50.583L18.583,55.833L26.75,52.417C28.028,53.694 29.417,54.778 30.917,55.667C32.417,56.556 34.055,57.222 35.833,57.667L36.917,66.417Z" fill="#AAAAAA"/>
</svg>
