<svg width="80" height="80" viewBox="0 0 80 80" fill="none" xmlns="http://www.w3.org/2000/svg" xmlns:xlink="http://www.w3.org/1999/xlink">
<mask id="mask_0_i_1_2862;1_2818" style="mask-type:alpha" maskUnits="userSpaceOnUse" x="0" y="0" width="40" height="40">
<rect  x="0" y="0" width="80" height="80" fill="#D9D9D9"/>
</mask>
<path d="M6.5,67.667C5.444,67.667 4.556,67.306 3.833,66.584C3.111,65.862 2.75,64.973 2.75,63.917L2.75,57.667C2.75,55.612 3.264,53.751 4.293,52.084C5.32,50.417 6.694,49.14 8.417,48.251C11.917,46.473 15.472,45.153 19.083,44.291C22.694,43.431 26.361,43.001 30.083,43.001C33.806,43.001 37.472,43.431 41.083,44.291C44.694,45.153 48.222,46.445 51.667,48.167C53.389,49.056 54.778,50.348 55.833,52.044C56.889,53.737 57.417,55.612 57.417,57.667L57.417,63.917C57.417,64.973 57.056,65.862 56.333,66.584C55.611,67.306 54.694,67.667 53.583,67.667L6.5,67.667ZM62.583,67.667C63.139,67.223 63.57,66.667 63.877,66.001C64.181,65.334 64.333,64.612 64.333,63.834L64.333,57.001C64.333,54.501 63.667,52.098 62.333,49.794C61,47.487 59.056,45.417 56.5,43.584C59.222,43.973 61.778,44.556 64.167,45.334C66.556,46.112 68.806,47.056 70.917,48.167C72.972,49.278 74.542,50.597 75.627,52.124C76.709,53.653 77.25,55.306 77.25,57.084L77.25,63.917C77.25,64.973 76.889,65.862 76.167,66.584C75.444,67.306 74.556,67.667 73.5,67.667L62.583,67.667ZM30.083,39.667C26.306,39.667 23.083,38.334 20.417,35.667C17.75,33.001 16.417,29.778 16.417,26.001C16.417,22.223 17.75,19.001 20.417,16.334C23.083,13.667 26.306,12.334 30.083,12.334C33.861,12.334 37.083,13.667 39.75,16.334C42.417,19.001 43.75,22.223 43.75,26.001C43.75,29.778 42.417,33.001 39.75,35.667C37.083,38.334 33.861,39.667 30.083,39.667ZM64.333,26.001C64.333,29.778 63,33.001 60.333,35.667C57.667,38.334 54.444,39.667 50.667,39.667C50.056,39.667 49.292,39.597 48.377,39.457C47.459,39.32 46.667,39.14 46,38.917C47.5,37.14 48.653,35.14 49.46,32.917C50.264,30.695 50.667,28.39 50.667,26.001C50.667,23.612 50.264,21.306 49.46,19.084C48.653,16.862 47.5,14.862 46,13.084C46.778,12.751 47.556,12.542 48.333,12.457C49.111,12.375 49.889,12.334 50.667,12.334C54.444,12.334 57.667,13.667 60.333,16.334C63,19.001 64.333,22.223 64.333,26.001Z" fill="#1CD2AD"/>
</svg>
