<svg width="80" height="80" viewBox="0 0 80 80" fill="none" xmlns="http://www.w3.org/2000/svg" xmlns:xlink="http://www.w3.org/1999/xlink">
<mask id="mask_0_i_1_2847;1_2764" style="mask-type:alpha" maskUnits="userSpaceOnUse" x="0" y="0" width="40" height="40">
<rect  x="0" y="0" width="80" height="80" fill="#D9D9D9"/>
</mask>
<path d="M12.5,67.25C10.777,67.25 9.291,66.611 8.042,65.334C6.791,64.055 6.166,62.583 6.166,60.916L6.166,18.834C6.166,17.167 6.791,15.695 8.042,14.416C9.291,13.139 10.777,12.5 12.5,12.5L31.666,12.5C32.499,12.5 33.305,12.667 34.084,13C34.861,13.333 35.528,13.805 36.084,14.416L40.084,18.334L67.666,18.334C69.333,18.334 70.805,18.959 72.084,20.208C73.361,21.459 74,22.945 74,24.666L74,60.916C74,62.583 73.361,64.055 72.084,65.334C70.805,66.611 69.333,67.25 67.666,67.25L12.5,67.25ZM12.5,18.834L12.5,60.916L67.666,60.916L67.666,24.666L37.416,24.666L31.666,18.834L12.5,18.834Z" fill="#AAAAAA"/>
</svg>
