<svg width="80" height="80" viewBox="0 0 80 80" fill="none" xmlns="http://www.w3.org/2000/svg" xmlns:xlink="http://www.w3.org/1999/xlink">
<mask id="mask_0_i_1_2851;1_2781" style="mask-type:alpha" maskUnits="userSpaceOnUse" x="0" y="0" width="40" height="40">
<rect  x="0" y="0" width="80" height="80" fill="#D9D9D9"/>
</mask>
<path d="M43.167,25.917L43.167,12.583C43.167,11.528 43.528,10.639 44.25,9.917C44.972,9.194 45.889,8.833 47,8.833L67.417,8.833C68.472,8.833 69.361,9.194 70.083,9.917C70.805,10.639 71.167,11.528 71.167,12.583L71.167,25.917C71.167,26.972 70.805,27.874 70.083,28.623C69.361,29.375 68.472,29.75 67.417,29.75L47,29.75C45.889,29.75 44.972,29.375 44.25,28.623C43.528,27.874 43.167,26.972 43.167,25.917ZM8.833,40.083L8.833,12.583C8.833,11.528 9.194,10.639 9.917,9.917C10.639,9.194 11.528,8.833 12.583,8.833L33,8.833C34.111,8.833 35.028,9.194 35.75,9.917C36.472,10.639 36.833,11.528 36.833,12.583L36.833,40.083C36.833,41.139 36.472,42.028 35.75,42.75C35.028,43.472 34.111,43.833 33,43.833L12.583,43.833C11.528,43.833 10.639,43.472 9.917,42.75C9.194,42.028 8.833,41.139 8.833,40.083ZM43.167,67.333L43.167,39.917C43.167,38.806 43.528,37.889 44.25,37.167C44.972,36.445 45.889,36.083 47,36.083L67.417,36.083C68.472,36.083 69.361,36.445 70.083,37.167C70.805,37.889 71.167,38.806 71.167,39.917L71.167,67.333C71.167,68.389 70.805,69.292 70.083,70.043C69.361,70.792 68.472,71.167 67.417,71.167L47,71.167C45.889,71.167 44.972,70.792 44.25,70.043C43.528,69.292 43.167,68.389 43.167,67.333ZM8.833,67.333L8.833,54C8.833,52.945 9.194,52.056 9.917,51.333C10.639,50.611 11.528,50.25 12.583,50.25L33,50.25C34.111,50.25 35.028,50.611 35.75,51.333C36.472,52.056 36.833,52.945 36.833,54L36.833,67.333C36.833,68.389 36.472,69.292 35.75,70.043C35.028,70.792 34.111,71.167 33,71.167L12.583,71.167C11.528,71.167 10.639,70.792 9.917,70.043C9.194,69.292 8.833,68.389 8.833,67.333Z" fill="#1CD2AD"/>
</svg>
