<svg width="80" height="80" viewBox="0 0 80 80" fill="none" xmlns="http://www.w3.org/2000/svg" xmlns:xlink="http://www.w3.org/1999/xlink">
<mask id="mask_0_i_1_2868;1_2840" style="mask-type:alpha" maskUnits="userSpaceOnUse" x="0" y="0" width="40" height="40">
<rect  x="0" y="0" width="80" height="80" fill="#D9D9D9"/>
</mask>
<path d="M23.5,70.667C22.611,69.722 22.167,68.624 22.167,67.373C22.167,66.124 22.611,65.028 23.5,64.083L47.583,40L23.417,15.833C22.528,14.944 22.083,13.861 22.083,12.583C22.083,11.306 22.555,10.194 23.5,9.25C24.389,8.361 25.472,7.917 26.75,7.917C28.028,7.917 29.139,8.361 30.083,9.25L58.083,37.333C58.472,37.722 58.75,38.139 58.917,38.583C59.083,39.028 59.167,39.5 59.167,40C59.167,40.5 59.083,40.972 58.917,41.417C58.75,41.861 58.472,42.278 58.083,42.667L30,70.75C29.111,71.639 28.041,72.083 26.79,72.083C25.541,72.083 24.444,71.611 23.5,70.667Z" fill="#AAAAAA"/>
</svg>
