<svg width="80" height="80" viewBox="0 0 80 80" fill="none" xmlns="http://www.w3.org/2000/svg" xmlns:xlink="http://www.w3.org/1999/xlink">
<mask id="mask_0_i_1_2848;1_2767" style="mask-type:alpha" maskUnits="userSpaceOnUse" x="0" y="0" width="40" height="40">
<rect  x="0" y="0" width="80" height="80" fill="#D9D9D9"/>
</mask>
<path d="M19.084,74.334C16.305,74.334 13.958,73.375 12.042,71.458C10.125,69.542 9.166,67.195 9.166,64.416L9.166,56.75C9.166,55.861 9.472,55.111 10.084,54.5C10.695,53.889 11.445,53.584 12.334,53.584L19.834,53.584L19.834,8.834C19.834,8.167 20.07,7.806 20.542,7.75C21.014,7.694 21.5,7.916 22,8.416L24.916,11.416L28.916,7.416C29.249,7.083 29.625,6.916 30.042,6.916C30.458,6.916 30.833,7.083 31.166,7.416L35.084,11.416L39.084,7.416C39.361,7.083 39.722,6.916 40.166,6.916C40.611,6.916 41.001,7.083 41.334,7.416L45.334,11.416L49.25,7.416C49.583,7.083 49.959,6.916 50.376,6.916C50.792,6.916 51.167,7.083 51.5,7.416L55.5,11.416L59.5,7.416C59.777,7.083 60.139,6.916 60.584,6.916C61.028,6.916 61.417,7.083 61.75,7.416L65.666,11.416L68.666,8.416C69.166,7.916 69.652,7.694 70.124,7.75C70.597,7.806 70.834,8.167 70.834,8.834L70.834,64.416C70.834,67.195 69.875,69.542 67.958,71.458C66.042,73.375 63.695,74.334 60.916,74.334L19.084,74.334ZM60.916,68C61.972,68 62.833,67.667 63.5,67C64.167,66.333 64.5,65.472 64.5,64.416L64.5,16L26.084,16L26.084,53.584L54.166,53.584C55.055,53.584 55.805,53.889 56.416,54.5C57.028,55.111 57.334,55.861 57.334,56.75L57.334,64.416C57.334,65.472 57.667,66.333 58.334,67C59.001,67.667 59.861,68 60.916,68ZM32.834,29.416C32.111,29.416 31.486,29.139 30.958,28.584C30.43,28.028 30.166,27.361 30.166,26.584C30.166,25.805 30.43,25.153 30.958,24.626C31.486,24.098 32.139,23.834 32.916,23.834L47,23.834C47.777,23.834 48.43,24.098 48.958,24.626C49.486,25.153 49.75,25.805 49.75,26.584C49.75,27.417 49.486,28.098 48.958,28.626C48.43,29.153 47.777,29.416 47,29.416L32.834,29.416ZM32.834,40.166C32.111,40.166 31.486,39.889 30.958,39.334C30.43,38.778 30.166,38.111 30.166,37.334C30.166,36.555 30.43,35.903 30.958,35.376C31.486,34.848 32.139,34.584 32.916,34.584L47,34.584C47.777,34.584 48.43,34.848 48.958,35.376C49.486,35.903 49.75,36.583 49.75,37.416C49.75,38.195 49.486,38.848 48.958,39.376C48.43,39.903 47.777,40.166 47,40.166L32.834,40.166ZM57.166,29.416C56.389,29.416 55.722,29.139 55.166,28.584C54.611,28.028 54.334,27.361 54.334,26.584C54.334,25.861 54.611,25.222 55.166,24.666C55.722,24.111 56.389,23.834 57.166,23.834C57.889,23.834 58.528,24.111 59.084,24.666C59.639,25.222 59.916,25.861 59.916,26.584C59.916,27.361 59.639,28.028 59.084,28.584C58.528,29.139 57.889,29.416 57.166,29.416ZM57.166,39.916C56.389,39.916 55.722,39.639 55.166,39.084C54.611,38.528 54.334,37.861 54.334,37.084C54.334,36.361 54.611,35.722 55.166,35.166C55.722,34.611 56.389,34.334 57.166,34.334C57.889,34.334 58.528,34.611 59.084,35.166C59.639,35.722 59.916,36.361 59.916,37.084C59.916,37.861 59.639,38.528 59.084,39.084C58.528,39.639 57.889,39.916 57.166,39.916ZM19,68L51,68L51,59.916L15.5,59.916L15.5,64.416C15.5,65.472 15.833,66.333 16.5,67C17.167,67.667 18,68 19,68Z" fill="#AAAAAA"/>
</svg>
