<svg width="80" height="80" viewBox="0 0 80 80" fill="none" xmlns="http://www.w3.org/2000/svg" xmlns:xlink="http://www.w3.org/1999/xlink">
<path d="M31.06,73.229C31.639,73.743 32.316,74 33.09,74L44.856,74C45.63,74 46.307,73.743 46.887,73.229C47.467,72.717 47.813,72.082 47.923,71.324L49.166,63.54C50.05,63.27 50.934,62.865 51.817,62.324C52.701,61.784 53.503,61.244 54.221,60.703L61.596,63.947C62.369,64.271 63.128,64.312 63.875,64.068C64.62,63.825 65.214,63.325 65.657,62.567L71.54,52.514C71.927,51.866 72.024,51.163 71.83,50.405C71.636,49.649 71.236,49.027 70.629,48.541L63.917,43.757C64.027,43.324 64.096,42.864 64.123,42.378C64.151,41.891 64.165,41.432 64.165,41C64.165,40.568 64.151,40.109 64.123,39.622C64.096,39.136 64.027,38.676 63.917,38.243L70.629,33.459C71.292,32.973 71.719,32.351 71.911,31.595C72.105,30.837 71.981,30.108 71.54,29.406L65.657,19.351C65.27,18.648 64.69,18.189 63.917,17.973C63.142,17.757 62.396,17.783 61.679,18.053L54.221,21.297C53.558,20.756 52.757,20.229 51.817,19.717C50.878,19.203 49.994,18.784 49.166,18.46L47.923,10.594C47.813,9.838 47.467,9.216 46.887,8.73C46.307,8.243 45.63,8 44.856,8L33.09,8C32.316,8 31.639,8.243 31.06,8.73C30.479,9.216 30.134,9.838 30.024,10.594L28.781,18.539C27.952,18.811 27.081,19.203 26.169,19.717C25.258,20.229 24.444,20.756 23.725,21.297L16.267,18.053C15.55,17.783 14.804,17.757 14.03,17.973C13.257,18.189 12.677,18.648 12.289,19.351L6.407,29.486C6.019,30.134 5.909,30.837 6.075,31.595C6.24,32.351 6.655,32.973 7.318,33.459L13.948,38.324C13.892,38.703 13.851,39.136 13.823,39.622C13.795,40.109 13.781,40.568 13.781,41C13.781,41.432 13.795,41.891 13.823,42.378C13.851,42.864 13.892,43.297 13.948,43.676L7.318,48.541C6.655,49.027 6.24,49.649 6.075,50.405C5.909,51.163 6.019,51.866 6.407,52.514L12.289,62.649C12.677,63.352 13.257,63.825 14.03,64.068C14.804,64.312 15.55,64.271 16.267,63.947L23.725,60.703C24.444,61.244 25.258,61.771 26.169,62.285C27.081,62.798 27.952,63.216 28.781,63.54L30.024,71.324C30.134,72.082 30.479,72.717 31.06,73.229Z" clip-rule="evenodd" fill-rule="evenodd" fill="#1CD2AD"/>
<path d="M42.535,60.014C42.007,60.014 41.509,59.926 41.04,59.75C40.571,59.574 40.131,59.281 39.72,58.871L24.593,43.744C23.831,42.982 23.465,42.028 23.496,40.884C23.524,39.742 23.919,38.789 24.681,38.027C25.444,37.265 26.397,36.884 27.541,36.884C28.684,36.884 29.606,37.265 30.31,38.027L42.535,50.252L71.997,20.789C72.701,20.027 73.639,19.646 74.812,19.646C75.984,19.646 76.952,20.027 77.714,20.789C78.417,21.552 78.769,22.504 78.769,23.646C78.769,24.791 78.417,25.744 77.714,26.506L45.349,58.871C44.939,59.281 44.499,59.574 44.03,59.75C43.561,59.926 43.062,60.014 42.535,60.014Z" fill="#FFFFFF"/>
</svg>
