<svg width="80" height="80" viewBox="0 0 80 80" fill="none" xmlns="http://www.w3.org/2000/svg" xmlns:xlink="http://www.w3.org/1999/xlink">
<mask id="mask_0_i_1_2858;1_2806" style="mask-type:alpha" maskUnits="userSpaceOnUse" x="0" y="0" width="40" height="40">
<rect  x="0" y="0" width="80" height="80" fill="#D9D9D9"/>
</mask>
<path d="M16,63.917C14.945,63.917 14.042,63.555 13.293,62.833C12.542,62.111 12.167,61.194 12.167,60.083C12.167,59.028 12.542,58.139 13.293,57.417C14.042,56.694 14.945,56.333 16,56.333L19.083,56.333L19.083,33.75C19.083,28.917 20.515,24.639 23.377,20.917C26.237,17.194 29.945,14.75 34.5,13.583L34.5,11.333C34.5,9.833 35.042,8.556 36.127,7.5C37.209,6.444 38.5,5.917 40,5.917C41.5,5.917 42.792,6.444 43.877,7.5C44.959,8.556 45.5,9.833 45.5,11.333L45.5,13.583C50.111,14.75 53.833,17.194 56.667,20.917C59.5,24.639 60.917,28.917 60.917,33.75L60.917,56.333L64,56.333C65.111,56.333 66.028,56.694 66.75,57.417C67.472,58.139 67.833,59.028 67.833,60.083C67.833,61.194 67.472,62.111 66.75,62.833C66.028,63.555 65.111,63.917 64,63.917L16,63.917ZM40,74C38.111,74 36.487,73.333 35.127,72C33.765,70.667 33.083,69.055 33.083,67.167L46.917,67.167C46.917,69.055 46.237,70.667 44.877,72C43.515,73.333 41.889,74 40,74ZM26.667,56.333L53.333,56.333L53.333,33.75C53.333,30.083 52.028,26.944 49.417,24.333C46.806,21.722 43.667,20.417 40,20.417C36.333,20.417 33.195,21.722 30.583,24.333C27.972,26.944 26.667,30.083 26.667,33.75L26.667,56.333Z" fill="#AAAAAA"/>
</svg>
