<svg width="80" height="80" viewBox="0 0 80 80" fill="none" xmlns="http://www.w3.org/2000/svg" xmlns:xlink="http://www.w3.org/1999/xlink">
<mask id="mask_0_i_1_2859;1_2809" style="mask-type:alpha" maskUnits="userSpaceOnUse" x="0" y="0" width="40" height="40">
<rect  x="0" y="0" width="80" height="80" fill="#D9D9D9"/>
</mask>
<path d="M62.667,68.083L44.167,49.583C42.5,50.861 40.583,51.889 38.417,52.667C36.25,53.444 33.945,53.833 31.5,53.833C25.333,53.833 20.111,51.68 15.833,47.373C11.556,43.069 9.417,37.833 9.417,31.667C9.417,25.5 11.556,20.263 15.833,15.957C20.111,11.652 25.333,9.5 31.5,9.5C37.667,9.5 42.903,11.652 47.21,15.957C51.515,20.263 53.667,25.5 53.667,31.667C53.667,34.111 53.292,36.417 52.543,38.583C51.792,40.75 50.778,42.639 49.5,44.25L68.083,62.917C68.75,63.583 69.083,64.431 69.083,65.46C69.083,66.487 68.722,67.361 68,68.083C67.278,68.806 66.376,69.167 65.293,69.167C64.209,69.167 63.333,68.806 62.667,68.083ZM31.5,46.167C35.556,46.167 39,44.763 41.833,41.957C44.667,39.152 46.083,35.722 46.083,31.667C46.083,27.611 44.667,24.18 41.833,21.373C39,18.569 35.556,17.167 31.5,17.167C27.445,17.167 24.015,18.569 21.21,21.373C18.403,24.18 17,27.611 17,31.667C17,35.722 18.403,39.152 21.21,41.957C24.015,44.763 27.445,46.167 31.5,46.167Z" fill="#AAAAAA"/>
</svg>
