<svg width="80" height="80" viewBox="0 0 80 80" fill="none" xmlns="http://www.w3.org/2000/svg" xmlns:xlink="http://www.w3.org/1999/xlink">
<mask id="mask_0_i_1_2861;1_2815" style="mask-type:alpha" maskUnits="userSpaceOnUse" x="0" y="0" width="40" height="40">
<rect  x="0" y="0" width="80" height="80" fill="#D9D9D9"/>
</mask>
<path d="M13.583,67.334C11.472,67.334 9.68,66.598 8.207,65.127C6.736,63.654 6,61.862 6,59.751L6,19.917C6,17.806 6.736,16.014 8.207,14.541C9.68,13.07 11.472,12.334 13.583,12.334L29.917,12.334C30.917,12.334 31.876,12.528 32.793,12.917C33.709,13.306 34.528,13.862 35.25,14.584L40,19.334L66.417,19.334C68.528,19.334 70.32,20.071 71.793,21.544C73.264,23.015 74,24.806 74,26.917L74,59.751C74,61.862 73.264,63.654 71.793,65.127C70.32,66.598 68.528,67.334 66.417,67.334L13.583,67.334Z" fill="#1CD2AD"/>
</svg>
