<svg width="80" height="80" viewBox="0 0 80 80" fill="none" xmlns="http://www.w3.org/2000/svg" xmlns:xlink="http://www.w3.org/1999/xlink">
<mask id="mask_0_i_1_2869;1_2843" style="mask-type:alpha" maskUnits="userSpaceOnUse" x="0" y="0" width="40" height="40">
<rect  x="0" y="0" width="80" height="80" fill="#D9D9D9"/>
</mask>
<path d="M36.667,67.333C35.556,67.333 34.612,66.945 33.834,66.167C33.056,65.389 32.667,64.445 32.667,63.333L32.667,43.583L13.5,19.083C12.445,17.75 12.278,16.347 13,14.873C13.723,13.402 14.945,12.667 16.667,12.667L63.334,12.667C65.056,12.667 66.278,13.402 67.001,14.873C67.723,16.347 67.556,17.75 66.501,19.083L47.334,43.583L47.334,63.583C47.334,64.639 46.973,65.528 46.251,66.25C45.528,66.972 44.639,67.333 43.584,67.333L36.667,67.333ZM40.001,40.583L56.001,20.25L24,20.25L40.001,40.583Z" fill="#AAAAAA"/>
</svg>
