<svg width="80" height="80" viewBox="0 0 80 80" fill="none" xmlns="http://www.w3.org/2000/svg" xmlns:xlink="http://www.w3.org/1999/xlink">
<mask id="mask_0_i_1_2863;1_2821" style="mask-type:alpha" maskUnits="userSpaceOnUse" x="0" y="0" width="40" height="40">
<rect  x="0" y="0" width="80" height="80" fill="#D9D9D9"/>
</mask>
<path d="M30.167,60.083L49.833,60.083C50.833,60.083 51.667,59.749 52.333,59.083C53,58.416 53.333,57.583 53.333,56.583C53.333,55.583 53,54.749 52.333,54.083C51.667,53.416 50.833,53.083 49.833,53.083L30.167,53.083C29.167,53.083 28.333,53.416 27.667,54.083C27,54.749 26.667,55.583 26.667,56.583C26.667,57.583 27,58.416 27.667,59.083C28.333,59.749 29.167,60.083 30.167,60.083ZM30.167,46.749L49.833,46.749C50.833,46.749 51.667,46.416 52.333,45.749C53,45.083 53.333,44.249 53.333,43.249C53.333,42.249 53,41.416 52.333,40.749C51.667,40.083 50.833,39.749 49.833,39.749L30.167,39.749C29.167,39.749 28.333,40.083 27.667,40.749C27,41.416 26.667,42.249 26.667,43.249C26.667,44.249 27,45.083 27.667,45.749C28.333,46.416 29.167,46.749 30.167,46.749ZM20.25,73.999C18.139,73.999 16.348,73.264 14.877,71.793C13.403,70.319 12.667,68.527 12.667,66.416L12.667,13.583C12.667,11.472 13.403,9.679 14.877,8.206C16.348,6.735 18.139,5.999 20.25,5.999L43.833,5.999C44.833,5.999 45.792,6.194 46.71,6.583C47.626,6.972 48.445,7.499 49.167,8.166L65.167,24.166C65.833,24.888 66.361,25.707 66.75,26.623C67.139,27.541 67.333,28.499 67.333,29.499L67.333,66.416C67.333,68.527 66.598,70.319 65.127,71.793C63.653,73.264 61.861,73.999 59.75,73.999L20.25,73.999ZM43.083,26.416C43.083,27.527 43.445,28.444 44.167,29.166C44.889,29.888 45.806,30.249 46.917,30.249L59.75,30.249L43.083,13.583L43.083,26.416Z" fill="#1CD2AD"/>
</svg>
