<svg width="48" height="48" viewBox="0 0 48 48" fill="none" xmlns="http://www.w3.org/2000/svg" xmlns:xlink="http://www.w3.org/1999/xlink">
<mask id="mask_0_i_1_2957;84_458;81_404" style="mask-type:alpha" maskUnits="userSpaceOnUse" x="0" y="0" width="24" height="24">
<rect  x="0" y="0" width="48" height="48" fill="#D9D9D9"/>
</mask>
<g mask="url(#mask_0_i_1_2957;84_458;81_404)">
<path d="M3.5,40.5C2.967,40.5 2.525,40.317 2.174,39.95C1.825,39.583 1.65,39.133 1.65,38.6L1.65,35.15C1.65,33.917 1.958,32.8 2.575,31.8C3.192,30.8 4.05,30.05 5.15,29.55C7.483,28.484 9.666,27.709 11.7,27.226C13.734,26.742 15.817,26.5 17.95,26.5C20.117,26.5 22.209,26.742 24.226,27.226C26.242,27.709 28.416,28.484 30.75,29.55C31.85,30.05 32.717,30.8 33.35,31.8C33.983,32.8 34.3,33.917 34.3,35.15L34.3,38.6C34.3,39.133 34.116,39.583 33.75,39.95C33.384,40.317 32.934,40.5 32.4,40.5L3.5,40.5ZM36.65,40.5C36.983,40.366 37.258,40.125 37.475,39.775C37.692,39.425 37.8,39.016 37.8,38.55L37.8,35.05C37.8,33.117 37.308,31.458 36.325,30.074C35.342,28.691 34.017,27.516 32.35,26.55C34.383,26.816 36.3,27.2 38.1,27.7C39.9,28.2 41.417,28.766 42.65,29.4C43.817,30.066 44.725,30.883 45.374,31.85C46.025,32.817 46.35,33.9 46.35,35.1L46.35,38.6C46.35,39.133 46.175,39.583 45.826,39.95C45.475,40.317 45.033,40.5 44.5,40.5L36.65,40.5ZM17.95,23.8C15.717,23.8 13.858,23.058 12.374,21.575C10.891,20.092 10.15,18.217 10.15,15.95C10.15,13.717 10.891,11.858 12.374,10.375C13.858,8.892 15.717,8.15 17.95,8.15C20.217,8.15 22.092,8.892 23.575,10.375C25.058,11.858 25.8,13.717 25.8,15.95C25.8,18.217 25.058,20.092 23.575,21.575C22.092,23.058 20.217,23.8 17.95,23.8ZM37.1,15.95C37.1,18.217 36.358,20.092 34.874,21.575C33.391,23.058 31.533,23.8 29.3,23.8C28.9,23.8 28.467,23.766 28,23.7C27.533,23.634 27.1,23.534 26.7,23.4C27.534,22.466 28.175,21.366 28.625,20.1C29.075,18.834 29.3,17.45 29.3,15.95C29.3,14.45 29.075,13.092 28.625,11.875C28.175,10.658 27.534,9.533 26.7,8.5C27.1,8.4 27.525,8.316 27.974,8.25C28.425,8.184 28.867,8.15 29.3,8.15C31.533,8.15 33.391,8.892 34.874,10.375C36.358,11.858 37.1,13.717 37.1,15.95ZM5.4,36.7L30.5,36.7L30.5,35.2C30.5,34.733 30.367,34.283 30.1,33.85C29.833,33.417 29.5,33.117 29.1,32.95C26.934,31.95 25.009,31.258 23.326,30.875C21.642,30.492 19.85,30.3 17.95,30.3C16.083,30.3 14.3,30.492 12.6,30.875C10.9,31.258 8.967,31.95 6.8,32.95C6.4,33.117 6.067,33.417 5.8,33.85C5.533,34.283 5.4,34.733 5.4,35.2L5.4,36.7ZM17.95,20.15C19.15,20.15 20.15,19.75 20.95,18.95C21.75,18.15 22.15,17.15 22.15,15.95C22.15,14.75 21.75,13.75 20.95,12.95C20.15,12.15 19.15,11.75 17.95,11.75C16.75,11.75 15.75,12.15 14.95,12.95C14.15,13.75 13.75,14.75 13.75,15.95C13.75,17.15 14.15,18.15 14.95,18.95C15.75,19.75 16.75,20.15 17.95,20.15Z" fill="#767676"/>
</g>
</svg>
