<svg width="48" height="48" viewBox="0 0 48 48" fill="none" xmlns="http://www.w3.org/2000/svg" xmlns:xlink="http://www.w3.org/1999/xlink">
<mask id="mask_0_i_1_2951;84_463;81_458" style="mask-type:alpha" maskUnits="userSpaceOnUse" x="0" y="0" width="24" height="24">
<rect  x="0" y="0" width="48" height="48" fill="#D9D9D9"/>
</mask>
<g mask="url(#mask_0_i_1_2951;84_463;81_458)">
<path d="M25.9,15.55L25.9,7.55C25.9,6.917 26.117,6.383 26.55,5.95C26.983,5.517 27.533,5.3 28.2,5.3L40.45,5.3C41.083,5.3 41.617,5.517 42.05,5.95C42.483,6.383 42.7,6.917 42.7,7.55L42.7,15.55C42.7,16.183 42.483,16.725 42.05,17.174C41.617,17.625 41.083,17.85 40.45,17.85L28.2,17.85C27.533,17.85 26.983,17.625 26.55,17.174C26.117,16.725 25.9,16.183 25.9,15.55ZM5.3,24.05L5.3,7.55C5.3,6.917 5.517,6.383 5.95,5.95C6.383,5.517 6.917,5.3 7.55,5.3L19.8,5.3C20.467,5.3 21.017,5.517 21.45,5.95C21.883,6.383 22.1,6.917 22.1,7.55L22.1,24.05C22.1,24.683 21.883,25.217 21.45,25.65C21.017,26.083 20.467,26.3 19.8,26.3L7.55,26.3C6.917,26.3 6.383,26.083 5.95,25.65C5.517,25.217 5.3,24.683 5.3,24.05ZM25.9,40.4L25.9,23.95C25.9,23.283 26.117,22.733 26.55,22.3C26.983,21.867 27.533,21.65 28.2,21.65L40.45,21.65C41.083,21.65 41.617,21.867 42.05,22.3C42.483,22.733 42.7,23.283 42.7,23.95L42.7,40.4C42.7,41.033 42.483,41.575 42.05,42.026C41.617,42.475 41.083,42.7 40.45,42.7L28.2,42.7C27.533,42.7 26.983,42.475 26.55,42.026C26.117,41.575 25.9,41.033 25.9,40.4ZM5.3,40.4L5.3,32.4C5.3,31.767 5.517,31.233 5.95,30.8C6.383,30.367 6.917,30.15 7.55,30.15L19.8,30.15C20.467,30.15 21.017,30.367 21.45,30.8C21.883,31.233 22.1,31.767 22.1,32.4L22.1,40.4C22.1,41.033 21.883,41.575 21.45,42.026C21.017,42.475 20.467,42.7 19.8,42.7L7.55,42.7C6.917,42.7 6.383,42.475 5.95,42.026C5.517,41.575 5.3,41.033 5.3,40.4Z" fill="#1CD2AD"/>
</g>
</svg>
