<svg width="80" height="52" viewBox="0 0 80 52" fill="none" xmlns="http://www.w3.org/2000/svg" xmlns:xlink="http://www.w3.org/1999/xlink">
<path d="M0.844,0.232L6.693,0.232L6.693,50.082L0.844,50.082L0.844,0.232Z" fill="#121E48"/>
<path d="M31.231,18.116C34.92,18.116 37.876,19.279 40.098,21.605C42.321,23.89 43.432,27.006 43.432,30.952L43.432,50.082L37.96,50.082L37.96,31.264C37.96,28.73 37.268,26.777 35.885,25.406C34.501,23.994 32.593,23.288 30.162,23.288C27.436,23.288 25.235,24.139 23.558,25.842C21.881,27.504 21.043,30.08 21.043,33.569L21.043,50.082L15.571,50.082L15.571,18.926L21.043,18.926L21.043,23.412C23.265,19.881 26.661,18.116 31.231,18.116Z" fill="#121E48"/>
<path d="M65.849,50.892C61.112,50.892 57.17,49.334 54.026,46.218C50.881,43.061 49.309,39.156 49.309,34.504C49.309,29.851 50.881,25.967 54.026,22.851C57.17,19.694 61.112,18.116 65.849,18.116C68.952,18.116 71.74,18.863 74.214,20.359C76.688,21.813 78.532,23.786 79.748,26.279L75.157,28.896C74.361,27.234 73.124,25.905 71.447,24.908C69.812,23.911 67.946,23.412 65.849,23.412C62.705,23.412 60.063,24.472 57.925,26.59C55.829,28.709 54.781,31.347 54.781,34.504C54.781,37.619 55.829,40.236 57.925,42.355C60.063,44.474 62.705,45.533 65.849,45.533C67.946,45.533 69.832,45.055 71.51,44.1C73.187,43.103 74.465,41.774 75.346,40.112L80,42.791C78.658,45.242 76.73,47.215 74.214,48.711C71.698,50.165 68.91,50.892 65.849,50.892Z" fill="#121E48"/>
</svg>
