<svg width="96" height="78" viewBox="0 0 96 78" fill="none" xmlns="http://www.w3.org/2000/svg" xmlns:xlink="http://www.w3.org/1999/xlink">
<path d="M9.514,77.714C6.847,77.714 4.595,76.76 2.759,74.852C0.92,72.948 0,70.612 0,67.846C0,65.154 0.937,62.856 2.811,60.951C4.685,59.043 6.919,58.089 9.514,58.089L10.759,58.089C11.154,58.089 11.532,58.164 11.892,58.314L30.162,39.474C30.018,39.025 29.946,38.595 29.946,38.182L29.946,36.895C29.946,34.203 30.866,31.904 32.705,29.996C34.541,28.091 36.757,27.138 39.351,27.138C41.946,27.138 44.163,28.091 46.002,29.996C47.839,31.904 48.757,34.203 48.757,36.895C48.757,37.194 48.685,38.016 48.541,39.362L58.595,49.791C59.027,49.641 59.423,49.567 59.784,49.567L62.218,49.567C62.613,49.567 62.991,49.641 63.351,49.791L77.297,35.325C77.153,34.951 77.081,34.558 77.081,34.145L77.081,32.858C77.081,30.166 78.001,27.849 79.84,25.905C81.676,23.961 83.892,22.989 86.486,22.989C89.153,22.989 91.406,23.942 93.245,25.846C95.082,27.754 96,30.091 96,32.858C96,35.549 95.063,37.847 93.189,39.752C91.315,41.66 89.081,42.614 86.486,42.614L85.245,42.614C84.848,42.614 84.468,42.539 84.108,42.39L70.162,56.856C70.306,57.23 70.378,57.621 70.378,58.031L70.378,59.323C70.378,62.014 69.46,64.314 67.624,66.222C65.785,68.127 63.568,69.079 60.973,69.079C58.378,69.079 56.163,68.127 54.326,66.222C52.487,64.314 51.568,62.014 51.568,59.323L51.568,58.031C51.568,57.621 51.64,57.192 51.784,56.744L41.838,46.427C41.405,46.576 40.992,46.651 40.597,46.651L39.351,46.651C39.063,46.651 38.27,46.576 36.973,46.427L18.703,65.379C18.847,65.827 18.919,66.238 18.919,66.612L18.919,67.846C18.919,70.537 18.001,72.855 16.164,74.799C14.325,76.742 12.108,77.714 9.514,77.714ZM13.405,32.97L10.486,26.465L4.216,23.438L10.486,20.41L13.405,13.906L16.324,20.41L22.595,23.438L16.324,26.465L13.405,32.97ZM60.973,28.933L56.541,19.064L47.027,14.466L56.541,9.868L60.973,0L65.405,9.868L74.919,14.466L65.405,19.064L60.973,28.933Z" fill="#4732BA"/>
</svg>
