<svg width="48" height="48" viewBox="0 0 48 48" fill="none" xmlns="http://www.w3.org/2000/svg" xmlns:xlink="http://www.w3.org/1999/xlink">
<mask id="mask_0_i_1_2952;84_458;81_434" style="mask-type:alpha" maskUnits="userSpaceOnUse" x="0" y="0" width="24" height="24">
<rect  x="0" y="0" width="48" height="48" fill="#D9D9D9"/>
</mask>
<g mask="url(#mask_0_i_1_2952;84_458;81_434)">
<path d="M36.55,44.35L11.45,44.35C10.417,44.35 9.525,43.975 8.774,43.225C8.025,42.475 7.65,41.583 7.65,40.55L7.65,7.45C7.65,6.417 8.025,5.525 8.774,4.775C9.525,4.025 10.417,3.65 11.45,3.65L26.6,3.65C27.1,3.65 27.584,3.75 28.05,3.95C28.516,4.15 28.933,4.434 29.3,4.8L39.2,14.7C39.567,15.066 39.85,15.483 40.05,15.95C40.25,16.417 40.35,16.9 40.35,17.4L40.35,40.55C40.35,41.583 39.975,42.475 39.226,43.225C38.475,43.975 37.583,44.35 36.55,44.35ZM36.55,40.55L36.55,17.5L26.5,7.45L11.45,7.45L11.45,40.55L36.55,40.55Z" fill="#767676"/>
<path d="M23.461,34.8C23.147,34.8 22.89,34.695 22.691,34.486C22.492,34.277 22.393,34.015 22.393,33.701L22.393,32.13C21.388,31.942 20.524,31.576 19.802,31.031C19.08,30.487 18.509,29.775 18.09,28.896C17.965,28.624 17.97,28.336 18.106,28.032C18.242,27.729 18.467,27.514 18.781,27.389C19.053,27.263 19.331,27.263 19.614,27.389C19.896,27.514 20.121,27.724 20.288,28.017C20.645,28.666 21.111,29.158 21.686,29.492C22.262,29.827 22.926,29.995 23.68,29.995C24.622,29.995 25.397,29.77 26.004,29.32C26.611,28.869 26.915,28.236 26.915,27.42C26.915,26.582 26.643,25.928 26.099,25.457C25.554,24.986 24.476,24.489 22.864,23.965C21.272,23.463 20.116,22.809 19.394,22.003C18.671,21.197 18.31,20.197 18.31,19.004C18.31,17.789 18.697,16.789 19.472,16.005C20.247,15.219 21.22,14.764 22.393,14.638L22.393,13.099C22.393,12.785 22.492,12.523 22.691,12.314C22.89,12.105 23.147,12 23.461,12C23.775,12 24.036,12.105 24.245,12.314C24.455,12.523 24.56,12.785 24.56,13.099L24.56,14.638C25.334,14.764 26.02,15.01 26.616,15.376C27.213,15.742 27.711,16.208 28.108,16.773C28.297,17.025 28.333,17.302 28.218,17.606C28.103,17.91 27.889,18.124 27.574,18.25C27.323,18.375 27.051,18.386 26.758,18.281C26.465,18.176 26.203,17.998 25.973,17.747C25.68,17.412 25.334,17.161 24.936,16.993C24.538,16.826 24.057,16.742 23.492,16.742C22.571,16.742 21.859,16.946 21.356,17.354C20.854,17.763 20.603,18.302 20.603,18.972C20.603,19.705 20.901,20.291 21.498,20.73C22.094,21.17 23.22,21.641 24.874,22.144C26.319,22.604 27.402,23.264 28.124,24.122C28.847,24.981 29.208,26.049 29.208,27.325C29.208,28.707 28.8,29.801 27.983,30.607C27.166,31.414 26.025,31.932 24.56,32.162L24.56,33.701C24.56,34.015 24.455,34.277 24.245,34.486C24.036,34.695 23.775,34.8 23.461,34.8Z" fill="#767676"/>
</g>
</svg>
