<svg width="242" height="68" viewBox="0 0 242 68" fill="none" xmlns="http://www.w3.org/2000/svg" xmlns:xlink="http://www.w3.org/1999/xlink">
<path d="M21.049,40.221L12.69,40.221L12.69,57.069C12.69,58.602 12.984,59.701 13.57,60.364C14.199,60.986 15.141,61.317 16.398,61.359C17.655,61.359 19.206,61.317 21.049,61.234L21.049,66.084C16.273,66.705 12.774,66.332 10.553,64.965C8.333,63.555 7.222,60.923 7.222,57.069L7.222,40.221L1,40.221L1,34.999L7.222,34.999L7.222,27.911L12.69,26.295L12.69,34.999L21.049,34.999L21.049,40.221Z" fill="#121E48"/>
<path d="M33.175,40.221C34.977,36.366 38.245,34.439 42.98,34.439L42.98,40.097C40.298,39.972 37.994,40.677 36.066,42.21C34.139,43.744 33.175,46.21 33.175,49.609L33.175,66.084L27.707,66.084L27.707,34.999L33.175,34.999L33.175,40.221Z" fill="#121E48"/>
<path d="M72.631,34.999L78.099,34.999L78.099,66.084L72.631,66.084L72.631,60.737C69.908,64.84 65.948,66.892 60.753,66.892C56.353,66.892 52.603,65.317 49.502,62.167C46.402,58.975 44.851,55.1 44.851,50.541C44.851,45.982 46.402,42.128 49.502,38.978C52.603,35.786 56.353,34.19 60.753,34.19C65.948,34.19 69.908,36.242 72.631,40.345L72.631,34.999ZM61.444,61.67C64.628,61.67 67.289,60.613 69.426,58.499C71.563,56.344 72.631,53.691 72.631,50.541C72.631,47.391 71.563,44.759 69.426,42.645C67.289,40.49 64.628,39.413 61.444,39.413C58.302,39.413 55.662,40.49 53.525,42.645C51.388,44.759 50.319,47.391 50.319,50.541C50.319,53.691 51.388,56.344 53.525,58.499C55.662,60.613 58.302,61.67 61.444,61.67Z" fill="#121E48"/>
<path d="M101.154,66.892C96.419,66.892 92.48,65.338 89.338,62.229C86.195,59.079 84.624,55.183 84.624,50.541C84.624,45.899 86.195,42.024 89.338,38.915C92.48,35.765 96.419,34.19 101.154,34.19C104.254,34.19 107.041,34.937 109.513,36.429C111.985,37.879 113.829,39.848 115.044,42.335L110.456,44.946C109.66,43.288 108.423,41.962 106.747,40.967C105.113,39.972 103.249,39.475 101.154,39.475C98.011,39.475 95.372,40.532 93.235,42.645C91.14,44.759 90.092,47.391 90.092,50.541C90.092,53.65 91.14,56.261 93.235,58.374C95.372,60.488 98.011,61.545 101.154,61.545C103.249,61.545 105.134,61.069 106.81,60.115C108.486,59.121 109.764,57.794 110.644,56.136L115.295,58.81C113.954,61.255 112.027,63.224 109.513,64.716C106.999,66.166 104.213,66.892 101.154,66.892Z" fill="#121E48"/>
<path d="M147.28,66.084L140.492,66.084L126.162,51.349L126.162,66.084L120.694,66.084L120.694,22.565L126.162,22.565L126.162,48.738L139.738,34.999L146.777,34.999L131.756,50.044L147.28,66.084Z" fill="#121E48"/>
<path d="M161.844,16.232L167.693,16.232L167.693,66.082L161.844,66.082L161.844,16.232Z" fill="#121E48"/>
<path d="M192.231,34.116C195.921,34.116 198.877,35.279 201.099,37.605C203.321,39.89 204.432,43.006 204.432,46.952L204.432,66.082L198.96,66.082L198.96,47.264C198.96,44.73 198.269,42.777 196.885,41.406C195.501,39.994 193.594,39.288 191.162,39.288C188.437,39.288 186.235,40.139 184.558,41.842C182.881,43.504 182.043,46.08 182.043,49.569L182.043,66.082L176.571,66.082L176.571,34.926L182.043,34.926L182.043,39.412C184.265,35.881 187.661,34.116 192.231,34.116Z" fill="#121E48"/>
<path d="M226.85,66.892C222.112,66.892 218.171,65.334 215.026,62.218C211.882,59.061 210.309,55.156 210.309,50.504C210.309,45.851 211.882,41.967 215.026,38.851C218.171,35.694 222.112,34.116 226.85,34.116C229.952,34.116 232.74,34.863 235.214,36.359C237.688,37.813 239.533,39.786 240.748,42.279L236.157,44.896C235.361,43.234 234.124,41.905 232.447,40.908C230.812,39.911 228.946,39.412 226.85,39.412C223.705,39.412 221.064,40.472 218.925,42.59C216.829,44.709 215.781,47.347 215.781,50.504C215.781,53.619 216.829,56.236 218.925,58.355C221.064,60.474 223.705,61.533 226.85,61.533C228.946,61.533 230.833,61.055 232.51,60.1C234.187,59.103 235.466,57.774 236.346,56.112L241,58.791C239.658,61.242 237.73,63.215 235.214,64.711C232.698,66.165 229.91,66.892 226.85,66.892Z" fill="#121E48"/>
<path d="M156.886,40.612L152.662,36.23L168.277,20.032L152.662,3.833L156.886,-0.549L176.726,20.032L156.886,40.612Z" transform="rotate(-180 164.694 20.032)" fill="#1CD2AD"/>
</svg>
