<svg width="48" height="48" viewBox="0 0 48 48" fill="none" xmlns="http://www.w3.org/2000/svg" xmlns:xlink="http://www.w3.org/1999/xlink">
<mask id="mask_0_i_1_2962;84_458;132_743" style="mask-type:alpha" maskUnits="userSpaceOnUse" x="0" y="0" width="24" height="24">
<rect  x="0" y="0" width="48" height="48" fill="#D9D9D9"/>
</mask>
<g mask="url(#mask_0_i_1_2962;84_458;132_743)">
<path d="M30.45,32.95C30.017,32.45 29.8,31.891 29.8,31.274C29.8,30.658 30.017,30.133 30.45,29.7L33.9,26.3L20.05,26.3C19.417,26.3 18.883,26.075 18.45,25.624C18.017,25.175 17.8,24.633 17.8,24C17.8,23.367 18.017,22.825 18.45,22.376C18.883,21.925 19.417,21.7 20.05,21.7L33.9,21.7L30.45,18.3C29.983,17.833 29.758,17.291 29.774,16.674C29.791,16.058 30.017,15.517 30.45,15.05C30.883,14.617 31.409,14.4 32.026,14.4C32.642,14.4 33.167,14.617 33.6,15.05L41,22.4C41.2,22.633 41.35,22.883 41.45,23.15C41.55,23.417 41.6,23.7 41.6,24C41.6,24.3 41.55,24.583 41.45,24.85C41.35,25.117 41.2,25.367 41,25.6L33.6,33C33.1,33.467 32.559,33.675 31.976,33.624C31.392,33.575 30.883,33.35 30.45,32.95ZM10,42.4C8.733,42.4 7.659,41.959 6.776,41.076C5.892,40.192 5.45,39.117 5.45,37.85L5.45,10.15C5.45,8.883 5.892,7.808 6.776,6.924C7.659,6.041 8.733,5.6 10,5.6L21.8,5.6C22.467,5.6 23.017,5.817 23.45,6.25C23.883,6.683 24.1,7.217 24.1,7.85C24.1,8.517 23.883,9.067 23.45,9.5C23.017,9.933 22.467,10.15 21.8,10.15L10,10.15L10,37.85L21.8,37.85C22.467,37.85 23.017,38.067 23.45,38.5C23.883,38.933 24.1,39.483 24.1,40.15C24.1,40.783 23.883,41.317 23.45,41.75C23.017,42.183 22.467,42.4 21.8,42.4L10,42.4Z" fill="#767676"/>
</g>
</svg>
