<svg width="48" height="48" viewBox="0 0 48 48" fill="none" xmlns="http://www.w3.org/2000/svg" xmlns:xlink="http://www.w3.org/1999/xlink">
<mask id="mask_0_1_144" style="mask-type:alpha" maskUnits="userSpaceOnUse" x="0" y="0" width="24" height="24">
<rect  x="0" y="0" width="48" height="48" fill="#D9D9D9"/>
</mask>
<g mask="url(#mask_0_1_144)">
<path d="M9.6,38.35C8.967,38.35 8.425,38.133 7.976,37.7C7.525,37.267 7.3,36.717 7.3,36.05C7.3,35.417 7.525,34.883 7.976,34.45C8.425,34.017 8.967,33.8 9.6,33.8L11.45,33.8L11.45,20.25C11.45,17.35 12.309,14.783 14.026,12.55C15.742,10.317 17.967,8.85 20.7,8.15L20.7,6.8C20.7,5.9 21.025,5.133 21.676,4.5C22.325,3.867 23.1,3.55 24,3.55C24.9,3.55 25.675,3.867 26.326,4.5C26.975,5.133 27.3,5.9 27.3,6.8L27.3,8.15C30.067,8.85 32.3,10.317 34,12.55C35.7,14.783 36.55,17.35 36.55,20.25L36.55,33.8L38.4,33.8C39.067,33.8 39.617,34.017 40.05,34.45C40.483,34.883 40.7,35.417 40.7,36.05C40.7,36.717 40.483,37.267 40.05,37.7C39.617,38.133 39.067,38.35 38.4,38.35L9.6,38.35ZM24,44.4C22.867,44.4 21.892,44 21.076,43.2C20.259,42.4 19.85,41.433 19.85,40.3L28.15,40.3C28.15,41.433 27.742,42.4 26.926,43.2C26.109,44 25.133,44.4 24,44.4ZM16,33.8L32,33.8L32,20.25C32,18.05 31.217,16.167 29.65,14.6C28.083,13.033 26.2,12.25 24,12.25C21.8,12.25 19.917,13.033 18.35,14.6C16.783,16.167 16,18.05 16,20.25L16,33.8Z" fill="#FFFFFF"/>
</g>
</svg>
