<svg width="96" height="96" viewBox="0 0 96 96" fill="none" xmlns="http://www.w3.org/2000/svg" xmlns:xlink="http://www.w3.org/1999/xlink">
<g opacity="0.6">
<path d="M31.15,92L31.15,65.749L42.608,65.749L42.608,92L31.15,92ZM56.893,92L56.893,54.422L68.351,54.422L68.351,92L56.893,92ZM82.636,92L82.636,41.72L94.094,41.72L94.094,92L82.636,92Z" fill="#FF891C"/>
<path d="M4.465,75.593L4.465,92L15.924,92L15.924,75.593L4.465,75.593Z" fill="#FF891C"/>
<path d="M7.37,62.697L0,55.327L35.008,20.089L53.433,38.514L75.889,16.288L64.143,16.288L64.143,5.809L93.738,5.809L93.738,35.289L83.259,35.289L83.259,23.659L53.433,53.484L35.008,35.059L7.37,62.697Z" fill="#FF891C"/>
</g>
</svg>
