<svg width="48" height="48" viewBox="0 0 48 48" fill="none" xmlns="http://www.w3.org/2000/svg" xmlns:xlink="http://www.w3.org/1999/xlink">
<mask id="mask_0_i_1_2956;84_458;81_422" style="mask-type:alpha" maskUnits="userSpaceOnUse" x="0" y="0" width="24" height="24">
<rect  x="0" y="0" width="48" height="48" fill="#D9D9D9"/>
</mask>
<g mask="url(#mask_0_i_1_2956;84_458;81_422)">
<path d="M7.5,40.35C6.466,40.35 5.575,39.967 4.825,39.2C4.075,38.433 3.7,37.55 3.7,36.55L3.7,11.3C3.7,10.3 4.075,9.417 4.825,8.65C5.575,7.883 6.466,7.5 7.5,7.5L19,7.5C19.5,7.5 19.983,7.6 20.45,7.8C20.917,8 21.317,8.283 21.65,8.65L24.05,11L40.6,11C41.6,11 42.483,11.375 43.25,12.125C44.017,12.875 44.4,13.767 44.4,14.8L44.4,36.55C44.4,37.55 44.017,38.433 43.25,39.2C42.483,39.967 41.6,40.35 40.6,40.35L7.5,40.35ZM7.5,11.3L7.5,36.55L40.6,36.55L40.6,14.8L22.45,14.8L19,11.3L7.5,11.3Z" fill="#767676"/>
</g>
</svg>
