<svg width="48" height="48" viewBox="0 0 48 48" fill="none" xmlns="http://www.w3.org/2000/svg" xmlns:xlink="http://www.w3.org/1999/xlink">
<mask id="mask_0_i_1_2953;84_458;81_416" style="mask-type:alpha" maskUnits="userSpaceOnUse" x="0" y="0" width="24" height="24">
<rect  x="0" y="0" width="48" height="48" fill="#D9D9D9"/>
</mask>
<g mask="url(#mask_0_i_1_2953;84_458;81_416)">
<path d="M17.7,35.7L30.3,35.7C30.8,35.7 31.217,35.533 31.55,35.2C31.883,34.867 32.05,34.45 32.05,33.95C32.05,33.45 31.883,33.034 31.55,32.7C31.217,32.366 30.8,32.2 30.3,32.2L17.7,32.2C17.2,32.2 16.783,32.366 16.45,32.7C16.117,33.034 15.95,33.45 15.95,33.95C15.95,34.45 16.117,34.867 16.45,35.2C16.783,35.533 17.2,35.7 17.7,35.7ZM17.7,27.35L30.3,27.35C30.8,27.35 31.217,27.184 31.55,26.85C31.883,26.516 32.05,26.1 32.05,25.6C32.05,25.1 31.883,24.691 31.55,24.374C31.217,24.058 30.8,23.9 30.3,23.9L17.7,23.9C17.2,23.9 16.783,24.067 16.45,24.4C16.117,24.733 15.95,25.133 15.95,25.6C15.95,26.1 16.117,26.516 16.45,26.85C16.783,27.184 17.2,27.35 17.7,27.35ZM11.45,44.35C10.417,44.35 9.525,43.975 8.774,43.225C8.025,42.475 7.65,41.583 7.65,40.55L7.65,7.45C7.65,6.417 8.025,5.525 8.774,4.775C9.525,4.025 10.417,3.65 11.45,3.65L27.25,3.65C27.783,3.65 28.283,3.75 28.75,3.95C29.217,4.15 29.617,4.434 29.95,4.8L39.2,14.05C39.567,14.383 39.85,14.783 40.05,15.25C40.25,15.717 40.35,16.217 40.35,16.75L40.35,40.55C40.35,41.583 39.975,42.475 39.226,43.225C38.475,43.975 37.583,44.35 36.55,44.35L11.45,44.35ZM26.9,15.1L26.9,7.45L11.45,7.45L11.45,40.55L36.55,40.55L36.55,17L28.8,17C28.266,17 27.816,16.817 27.45,16.45C27.084,16.083 26.9,15.633 26.9,15.1Z" fill="#767676"/>
</g>
</svg>
