<svg width="40" height="40" viewBox="0 0 40 40" fill="none" xmlns="http://www.w3.org/2000/svg" xmlns:xlink="http://www.w3.org/1999/xlink">
<mask id="mask_0_1_138" style="mask-type:alpha" maskUnits="userSpaceOnUse" x="0" y="0" width="20" height="20">
<rect  x="0" y="0" width="40" height="40" fill="#D9D9D9"/>
</mask>
<g mask="url(#mask_0_1_138)">
<path d="M31.331,34.041L22.081,24.791C21.248,25.43 20.289,25.944 19.206,26.333C18.123,26.722 16.97,26.916 15.748,26.916C12.664,26.916 10.053,25.84 7.914,23.686C5.776,21.534 4.706,18.916 4.706,15.833C4.706,12.75 5.776,10.131 7.914,7.978C10.053,5.826 12.664,4.75 15.748,4.75C18.831,4.75 21.449,5.826 23.603,7.978C25.755,10.131 26.831,12.75 26.831,15.833C26.831,17.055 26.644,18.208 26.27,19.291C25.894,20.375 25.387,21.319 24.748,22.125L34.04,31.458C34.373,31.791 34.54,32.215 34.54,32.73C34.54,33.243 34.359,33.68 33.998,34.041C33.637,34.403 33.186,34.583 32.645,34.583C32.102,34.583 31.665,34.403 31.331,34.041ZM15.748,23.083C17.776,23.083 19.498,22.381 20.914,20.978C22.331,19.576 23.039,17.861 23.039,15.833C23.039,13.805 22.331,12.09 20.914,10.686C19.498,9.284 17.776,8.583 15.748,8.583C13.72,8.583 12.005,9.284 10.603,10.686C9.199,12.09 8.498,13.805 8.498,15.833C8.498,17.861 9.199,19.576 10.603,20.978C12.005,22.381 13.72,23.083 15.748,23.083Z" fill="#FFFFFF"/>
</g>
</svg>
