<svg width="48" height="48" viewBox="0 0 48 48" fill="none" xmlns="http://www.w3.org/2000/svg" xmlns:xlink="http://www.w3.org/1999/xlink">
<path d="M19.569,44.4L27.218,44.4C27.781,44.4 28.27,44.214 28.685,43.843C29.029,43.532 29.264,43.161 29.39,42.727L25.336,38.856L25.182,39.984L21.556,39.984L20.91,34.888C19.85,34.629 18.873,34.241 17.979,33.724C17.085,33.206 16.257,32.575 15.496,31.831L10.628,33.821L8.84,30.763L13.062,27.657C12.896,27.14 12.772,26.63 12.69,26.128C12.607,25.627 12.565,25.118 12.565,24.6C12.565,24.05 12.607,23.525 12.69,23.024C12.772,22.522 12.896,22.028 13.062,21.543L8.84,18.437L10.628,15.379L15.496,17.369C16.257,16.625 17.085,15.994 17.979,15.476C18.873,14.959 19.85,14.571 20.91,14.312L21.556,9.216L25.231,9.216L25.877,14.312C26.937,14.571 27.914,14.959 28.808,15.476C29.702,15.994 30.513,16.641 31.242,17.418L33.273,16.575L38.316,10.691C38.171,10.611 38.015,10.547 37.848,10.501C37.318,10.356 36.788,10.381 36.258,10.575L32.036,12.274C31.705,12.047 31.383,11.837 31.069,11.643C30.754,11.449 30.397,11.287 30,11.157L29.453,6.741C29.354,6.159 29.098,5.69 28.685,5.334C28.27,4.978 27.781,4.8 27.218,4.8L19.569,4.8C19.006,4.8 18.518,4.978 18.105,5.334C17.69,5.69 17.433,6.159 17.334,6.741L16.787,11.157C16.423,11.287 16.075,11.449 15.744,11.643C15.413,11.837 15.098,12.047 14.8,12.274L10.529,10.575C9.999,10.381 9.461,10.356 8.915,10.501C8.368,10.647 7.962,10.963 7.697,11.449L3.922,17.903C3.624,18.388 3.533,18.906 3.648,19.456C3.765,20.006 4.038,20.443 4.469,20.766L8.095,23.484L8.095,25.716L4.469,28.434C4.038,28.757 3.765,29.194 3.648,29.744C3.533,30.294 3.624,30.812 3.922,31.297L7.697,37.751C7.995,38.237 8.409,38.56 8.939,38.722C9.469,38.884 9.999,38.868 10.529,38.674L14.751,36.926C15.082,37.153 15.404,37.363 15.718,37.557C16.034,37.751 16.39,37.929 16.787,38.091L17.334,42.459C17.433,43.009 17.69,43.47 18.105,43.843C18.518,44.214 19.006,44.4 19.569,44.4Z" clip-rule="evenodd" fill-rule="evenodd" fill="#767676"/>
<path d="M25.593,35.994C25.275,35.994 24.975,35.941 24.692,35.835C24.41,35.729 24.145,35.552 23.897,35.305L14.785,26.193C14.326,25.734 14.106,25.159 14.124,24.47C14.141,23.782 14.379,23.208 14.838,22.749C15.297,22.29 15.872,22.061 16.561,22.061C17.249,22.061 17.805,22.29 18.229,22.749L25.593,30.113L43.34,12.366C43.764,11.907 44.329,11.677 45.035,11.677C45.742,11.677 46.324,11.907 46.784,12.366C47.207,12.825 47.419,13.398 47.419,14.086C47.419,14.776 47.207,15.35 46.784,15.809L27.288,35.305C27.041,35.552 26.776,35.729 26.493,35.835C26.211,35.941 25.911,35.994 25.593,35.994Z" fill="#767676"/>
</svg>
