<svg width="48" height="48" viewBox="0 0 48 48" fill="none" xmlns="http://www.w3.org/2000/svg" xmlns:xlink="http://www.w3.org/1999/xlink">
<mask id="mask_0_i_1_2961;84_458;132_731" style="mask-type:alpha" maskUnits="userSpaceOnUse" x="0" y="0" width="24" height="24">
<rect  x="0" y="0" width="48" height="48" fill="#D9D9D9"/>
</mask>
<g mask="url(#mask_0_i_1_2961;84_458;132_731)">
<path d="M27.85,44.4L20.15,44.4C19.583,44.4 19.092,44.209 18.676,43.826C18.259,43.442 18,42.967 17.9,42.4L17.35,37.9C16.95,37.733 16.591,37.55 16.274,37.35C15.958,37.15 15.633,36.933 15.3,36.7L11.05,38.5C10.517,38.7 9.983,38.717 9.45,38.55C8.917,38.383 8.5,38.05 8.2,37.55L4.4,30.9C4.1,30.4 4.008,29.867 4.124,29.3C4.241,28.733 4.517,28.283 4.95,27.95L8.6,25.15L8.6,22.85L4.95,20.05C4.517,19.717 4.241,19.267 4.124,18.7C4.008,18.133 4.1,17.6 4.4,17.1L8.2,10.45C8.467,9.95 8.875,9.625 9.426,9.474C9.975,9.325 10.517,9.35 11.05,9.55L15.35,11.3C15.65,11.067 15.967,10.85 16.3,10.65C16.633,10.45 16.983,10.283 17.35,10.15L17.9,5.6C18,5 18.259,4.517 18.676,4.15C19.092,3.783 19.583,3.6 20.15,3.6L27.85,3.6C28.417,3.6 28.909,3.783 29.326,4.15C29.742,4.517 30,5 30.1,5.6L30.65,10.15C31.05,10.283 31.409,10.45 31.726,10.65C32.042,10.85 32.367,11.067 32.7,11.3L36.95,9.55C37.483,9.35 38.017,9.325 38.55,9.474C39.083,9.625 39.5,9.95 39.8,10.45L43.6,17.1C43.9,17.6 44,18.133 43.9,18.7C43.8,19.267 43.517,19.717 43.05,20.05L39.35,22.85C39.383,23.05 39.4,23.241 39.4,23.424L39.4,24.574C39.4,24.758 39.367,24.95 39.3,25.15L43,27.95C43.433,28.283 43.709,28.733 43.826,29.3C43.942,29.867 43.85,30.4 43.55,30.9L39.75,37.5C39.45,38 39.025,38.341 38.476,38.524C37.925,38.708 37.383,38.7 36.85,38.5L32.65,36.7C32.35,36.933 32.033,37.15 31.7,37.35C31.367,37.55 31.017,37.733 30.65,37.9L30.1,42.4C30,42.967 29.742,43.442 29.326,43.826C28.909,44.209 28.417,44.4 27.85,44.4ZM24.05,31C25.983,31 27.633,30.317 29,28.95C30.367,27.583 31.05,25.933 31.05,24C31.05,22.067 30.367,20.417 29,19.05C27.633,17.683 25.983,17 24.05,17C22.117,17 20.467,17.683 19.1,19.05C17.733,20.417 17.05,22.067 17.05,24C17.05,25.933 17.733,27.583 19.1,28.95C20.467,30.317 22.117,31 24.05,31ZM24.05,27C23.217,27 22.509,26.708 21.926,26.124C21.342,25.541 21.05,24.833 21.05,24C21.05,23.167 21.342,22.459 21.926,21.876C22.509,21.292 23.217,21 24.05,21C24.883,21 25.592,21.292 26.176,21.876C26.759,22.459 27.05,23.167 27.05,24C27.05,24.833 26.759,25.541 26.176,26.124C25.592,26.708 24.883,27 24.05,27ZM22.15,39.85L25.8,39.85L26.5,34.6C27.567,34.333 28.55,33.933 29.45,33.4C30.35,32.867 31.167,32.217 31.9,31.45L36.85,33.5L38.65,30.35L34.35,27.1C34.517,26.633 34.642,26.133 34.726,25.6C34.809,25.067 34.85,24.533 34.85,24C34.85,23.467 34.809,22.933 34.726,22.4C34.642,21.867 34.517,21.367 34.35,20.9L38.65,17.65L36.85,14.5L31.9,16.6C31.167,15.8 30.35,15.133 29.45,14.6C28.55,14.067 27.567,13.667 26.5,13.4L25.85,8.15L22.15,8.15L21.5,13.4C20.433,13.667 19.45,14.067 18.55,14.6C17.65,15.133 16.817,15.783 16.05,16.55L11.15,14.5L9.35,17.65L13.6,20.85C13.433,21.35 13.309,21.859 13.226,22.376C13.142,22.892 13.1,23.433 13.1,24C13.1,24.533 13.142,25.058 13.226,25.574C13.309,26.091 13.433,26.617 13.6,27.15L9.35,30.35L11.15,33.5L16.05,31.45C16.817,32.217 17.65,32.867 18.55,33.4C19.45,33.933 20.433,34.333 21.5,34.6L22.15,39.85Z" fill="#767676"/>
</g>
</svg>
