<svg width="148" height="46" viewBox="0 0 148 46" fill="none" xmlns="http://www.w3.org/2000/svg" xmlns:xlink="http://www.w3.org/1999/xlink">
<path d="M20.049,18.221L11.69,18.221L11.69,35.069C11.69,36.602 11.983,37.701 12.57,38.364C13.199,38.986 14.141,39.317 15.398,39.359C16.655,39.359 18.206,39.317 20.049,39.234L20.049,44.084C15.273,44.705 11.774,44.332 9.553,42.965C7.333,41.555 6.222,38.923 6.222,35.069L6.222,18.221L0,18.221L0,12.999L6.222,12.999L6.222,5.911L11.69,4.295L11.69,12.999L20.049,12.999L20.049,18.221Z" fill="#121E48"/>
<path d="M32.175,18.221C33.977,14.366 37.245,12.439 41.98,12.439L41.98,18.097C39.298,17.972 36.994,18.677 35.066,20.21C33.139,21.744 32.175,24.21 32.175,27.609L32.175,44.084L26.707,44.084L26.707,12.999L32.175,12.999L32.175,18.221Z" fill="#121E48"/>
<path d="M71.631,12.999L77.099,12.999L77.099,44.084L71.631,44.084L71.631,38.737C68.908,42.84 64.948,44.892 59.753,44.892C55.353,44.892 51.603,43.317 48.502,40.167C45.402,36.975 43.851,33.1 43.851,28.541C43.851,23.982 45.402,20.128 48.502,16.978C51.603,13.786 55.353,12.19 59.753,12.19C64.948,12.19 68.908,14.242 71.631,18.345L71.631,12.999ZM60.444,39.67C63.628,39.67 66.289,38.613 68.426,36.499C70.563,34.344 71.631,31.691 71.631,28.541C71.631,25.391 70.563,22.759 68.426,20.645C66.289,18.49 63.628,17.413 60.444,17.413C57.302,17.413 54.662,18.49 52.525,20.645C50.388,22.759 49.319,25.391 49.319,28.541C49.319,31.691 50.388,34.344 52.525,36.499C54.662,38.613 57.302,39.67 60.444,39.67Z" fill="#121E48"/>
<path d="M100.154,44.892C95.419,44.892 91.48,43.338 88.338,40.229C85.195,37.079 83.624,33.183 83.624,28.541C83.624,23.899 85.195,20.024 88.338,16.915C91.48,13.765 95.419,12.19 100.154,12.19C103.254,12.19 106.041,12.937 108.513,14.429C110.985,15.879 112.829,17.848 114.044,20.335L109.456,22.946C108.66,21.288 107.423,19.962 105.747,18.967C104.113,17.972 102.249,17.475 100.154,17.475C97.011,17.475 94.372,18.532 92.235,20.645C90.14,22.759 89.092,25.391 89.092,28.541C89.092,31.65 90.14,34.261 92.235,36.374C94.372,38.488 97.011,39.545 100.154,39.545C102.249,39.545 104.134,39.069 105.81,38.115C107.486,37.121 108.764,35.794 109.644,34.136L114.295,36.81C112.954,39.255 111.027,41.224 108.513,42.716C105.999,44.166 103.213,44.892 100.154,44.892Z" fill="#121E48"/>
<path d="M146.28,44.084L139.492,44.084L125.162,29.349L125.162,44.084L119.694,44.084L119.694,0.565L125.162,0.565L125.162,26.738L138.738,12.999L145.777,12.999L130.756,28.044L146.28,44.084Z" fill="#121E48"/>
</svg>
