<svg width="48" height="48" viewBox="0 0 48 48" fill="none" xmlns="http://www.w3.org/2000/svg" xmlns:xlink="http://www.w3.org/1999/xlink">
<mask id="mask_0_i_1_2955;84_458;81_428" style="mask-type:alpha" maskUnits="userSpaceOnUse" x="0" y="0" width="24" height="24">
<rect  x="0" y="0" width="48" height="48" fill="#D9D9D9"/>
</mask>
<g mask="url(#mask_0_i_1_2955;84_458;81_428)">
<path d="M11.45,44.6C9.783,44.6 8.375,44.025 7.225,42.875C6.075,41.725 5.5,40.317 5.5,38.65L5.5,34.05C5.5,33.516 5.683,33.066 6.05,32.7C6.417,32.334 6.867,32.15 7.4,32.15L11.9,32.15L11.9,5.3C11.9,4.9 12.042,4.684 12.325,4.65C12.608,4.616 12.9,4.75 13.2,5.05L14.95,6.85L17.35,4.45C17.55,4.25 17.775,4.15 18.025,4.15C18.275,4.15 18.5,4.25 18.7,4.45L21.05,6.85L23.45,4.45C23.617,4.25 23.833,4.15 24.1,4.15C24.367,4.15 24.6,4.25 24.8,4.45L27.2,6.85L29.55,4.45C29.75,4.25 29.975,4.15 30.226,4.15C30.475,4.15 30.7,4.25 30.9,4.45L33.3,6.85L35.7,4.45C35.866,4.25 36.083,4.15 36.35,4.15C36.617,4.15 36.85,4.25 37.05,4.45L39.4,6.85L41.2,5.05C41.5,4.75 41.791,4.616 42.074,4.65C42.358,4.684 42.5,4.9 42.5,5.3L42.5,38.65C42.5,40.317 41.925,41.725 40.775,42.875C39.625,44.025 38.217,44.6 36.55,44.6L11.45,44.6ZM36.55,40.8C37.183,40.8 37.7,40.6 38.1,40.2C38.5,39.8 38.7,39.283 38.7,38.65L38.7,9.6L15.65,9.6L15.65,32.15L32.5,32.15C33.033,32.15 33.483,32.334 33.85,32.7C34.217,33.066 34.4,33.516 34.4,34.05L34.4,38.65C34.4,39.283 34.6,39.8 35,40.2C35.4,40.6 35.917,40.8 36.55,40.8ZM19.7,17.65C19.267,17.65 18.892,17.483 18.575,17.15C18.258,16.817 18.1,16.417 18.1,15.95C18.1,15.483 18.258,15.092 18.575,14.776C18.892,14.459 19.283,14.3 19.75,14.3L28.2,14.3C28.666,14.3 29.058,14.459 29.375,14.776C29.692,15.092 29.85,15.483 29.85,15.95C29.85,16.45 29.692,16.859 29.375,17.176C29.058,17.492 28.666,17.65 28.2,17.65L19.7,17.65ZM19.7,24.1C19.267,24.1 18.892,23.933 18.575,23.6C18.258,23.267 18.1,22.867 18.1,22.4C18.1,21.933 18.258,21.542 18.575,21.226C18.892,20.909 19.283,20.75 19.75,20.75L28.2,20.75C28.666,20.75 29.058,20.909 29.375,21.226C29.692,21.542 29.85,21.95 29.85,22.45C29.85,22.917 29.692,23.309 29.375,23.626C29.058,23.942 28.666,24.1 28.2,24.1L19.7,24.1ZM34.3,17.65C33.833,17.65 33.433,17.483 33.1,17.15C32.767,16.817 32.6,16.417 32.6,15.95C32.6,15.517 32.767,15.133 33.1,14.8C33.433,14.467 33.833,14.3 34.3,14.3C34.733,14.3 35.117,14.467 35.45,14.8C35.783,15.133 35.95,15.517 35.95,15.95C35.95,16.417 35.783,16.817 35.45,17.15C35.117,17.483 34.733,17.65 34.3,17.65ZM34.3,23.95C33.833,23.95 33.433,23.783 33.1,23.45C32.767,23.117 32.6,22.717 32.6,22.25C32.6,21.817 32.767,21.433 33.1,21.1C33.433,20.767 33.833,20.6 34.3,20.6C34.733,20.6 35.117,20.767 35.45,21.1C35.783,21.433 35.95,21.817 35.95,22.25C35.95,22.717 35.783,23.117 35.45,23.45C35.117,23.783 34.733,23.95 34.3,23.95ZM11.4,40.8L30.6,40.8L30.6,35.95L9.3,35.95L9.3,38.65C9.3,39.283 9.5,39.8 9.9,40.2C10.3,40.6 10.8,40.8 11.4,40.8Z" fill="#767676"/>
</g>
</svg>
