<svg width="94" height="94" viewBox="0 0 94 94" fill="none" xmlns="http://www.w3.org/2000/svg" xmlns:xlink="http://www.w3.org/1999/xlink">
<path d="M57.32,1.147C47.524,-1.058 37.28,-0.067 28.089,3.973C18.897,8.013 11.24,14.89 6.241,23.597C1.241,32.304 -0.838,42.384 0.307,52.359C1.451,62.334 5.76,71.68 12.603,79.028C19.445,86.376 28.46,91.34 38.328,93.193C48.196,95.046 58.398,93.689 67.44,89.323C76.481,84.956 83.886,77.809 88.571,68.929C93.255,60.048 94.973,49.901 93.472,39.973L84.177,41.378C85.378,49.32 84.004,57.438 80.257,64.543C76.509,71.647 70.585,77.365 63.352,80.858C56.119,84.351 47.957,85.436 40.063,83.954C32.168,82.472 24.956,78.501 19.482,72.623C14.008,66.744 10.561,59.267 9.645,51.287C8.729,43.307 10.393,35.244 14.393,28.278C18.392,21.312 24.517,15.81 31.871,12.578C39.224,9.346 47.42,8.554 55.256,10.318L57.32,1.147ZM43.024,74L43.024,67.829C40.204,67.182 37.859,65.945 35.988,64.119C34.115,62.294 32.786,59.764 32,56.528L39.141,53.824C39.788,56.228 40.759,57.961 42.053,59.024C43.348,60.087 44.965,60.619 46.907,60.619C48.663,60.619 50.05,60.295 51.067,59.648C52.084,59.001 52.592,57.984 52.592,56.597C52.592,55.303 52.06,54.194 50.997,53.269C49.934,52.345 47.6,51.351 43.995,50.288C40.204,49.132 37.524,47.584 35.952,45.643C34.38,43.701 33.595,41.39 33.595,38.709C33.595,35.89 34.508,33.532 36.335,31.637C38.16,29.742 40.389,28.54 43.024,28.032L43.024,22L49.611,22L49.611,28.032C52.107,28.587 54.176,29.615 55.817,31.116C57.457,32.619 58.67,34.503 59.456,36.768L52.453,39.68C51.945,38.293 51.171,37.207 50.132,36.421C49.091,35.636 47.762,35.243 46.144,35.243C44.434,35.243 43.198,35.554 42.436,36.177C41.673,36.802 41.291,37.577 41.291,38.501C41.291,39.703 41.81,40.674 42.849,41.413C43.89,42.153 46.213,43.054 49.819,44.117C53.193,45.134 55.781,46.706 57.584,48.832C59.387,50.958 60.288,53.5 60.288,56.459C60.288,59.925 59.271,62.583 57.237,64.432C55.204,66.281 52.661,67.46 49.611,67.968L49.611,74L43.024,74ZM64,28.35L68.45,32.8L86.5,14.75L86.5,30.3L92.8,30.3L92.8,4L66.5,4L66.5,10.3L82.05,10.3L64,28.35Z" clip-rule="evenodd" fill-rule="evenodd" fill="#EC4A4A"/>
</svg>
