<svg width="94" height="94" viewBox="0 0 94 94" fill="none" xmlns="http://www.w3.org/2000/svg" xmlns:xlink="http://www.w3.org/1999/xlink">
<path d="M81.73,71.513C86.806,66.437 90.493,60.141 92.436,53.231C94.379,46.32 94.514,39.026 92.827,32.048C91.14,25.07 87.689,18.643 82.803,13.383C77.918,8.123 71.763,4.207 64.929,2.01C58.095,-0.187 50.81,-0.591 43.775,0.837C36.74,2.265 30.19,5.477 24.753,10.165C19.316,14.853 15.175,20.859 12.728,27.608C10.28,34.356 9.608,41.621 10.775,48.704L19.042,47.341C18.108,41.675 18.646,35.863 20.604,30.465C22.562,25.066 25.875,20.261 30.224,16.51C34.573,12.76 39.814,10.191 45.442,9.048C51.07,7.906 56.897,8.229 62.365,9.986C67.832,11.744 72.756,14.877 76.665,19.085C80.573,23.293 83.334,28.435 84.683,34.017C86.033,39.599 85.925,45.434 84.371,50.963C82.816,56.491 79.867,61.528 75.806,65.589L81.73,71.513ZM50.608,60.652L50.608,55.152C48.095,54.575 46.005,53.473 44.337,51.845C42.668,50.218 41.483,47.963 40.783,45.079L47.148,42.669C47.725,44.812 48.59,46.356 49.743,47.304C50.897,48.252 52.339,48.725 54.069,48.725C55.635,48.725 56.871,48.437 57.777,47.86C58.683,47.283 59.136,46.377 59.136,45.141C59.136,43.988 58.663,42.999 57.715,42.175C56.768,41.351 54.687,40.465 51.474,39.518C48.095,38.488 45.706,37.107 44.305,35.377C42.904,33.647 42.204,31.587 42.204,29.197C42.204,26.684 43.018,24.583 44.646,22.894C46.273,21.205 48.26,20.134 50.608,19.681L50.608,14.304L56.479,14.304L56.479,19.681C58.704,20.175 60.548,21.091 62.011,22.429C63.473,23.769 64.554,25.448 65.254,27.467L59.013,30.063C58.56,28.827 57.87,27.859 56.944,27.158C56.016,26.458 54.831,26.108 53.389,26.108C51.865,26.108 50.763,26.385 50.084,26.941C49.404,27.498 49.064,28.188 49.064,29.012C49.064,30.083 49.527,30.948 50.453,31.608C51.381,32.267 53.451,33.07 56.665,34.018C59.672,34.924 61.979,36.325 63.586,38.22C65.193,40.115 65.996,42.381 65.996,45.018C65.996,48.107 65.09,50.476 63.277,52.124C61.464,53.772 59.198,54.823 56.479,55.276L56.479,60.652L50.608,60.652ZM20.257,87.416L43.89,94L70.9,85.56L70.9,82.183C70.9,79.145 69.915,76.697 67.946,74.84C65.976,72.983 63.585,72.055 60.771,72.055L54.019,72.055C54.019,70.029 53.443,68.172 52.29,66.484C51.136,64.796 49.63,63.614 47.773,62.939L26.841,55.174L0,55.174L0,92.312L20.257,92.312L20.257,87.416ZM13.505,85.56L6.752,85.56L6.752,61.926L13.505,61.926L13.505,85.56ZM63.81,80.664L43.722,86.91L20.257,80.495L20.257,61.926L25.659,61.926L45.41,69.185C45.916,69.354 46.353,69.72 46.72,70.282C47.084,70.845 47.267,71.436 47.267,72.055C44.903,72.055 43.046,71.97 41.696,71.802C40.345,71.633 39.164,71.38 38.151,71.042L31.398,68.847L29.457,75.262L35.281,77.288C36.913,77.851 38.432,78.244 39.839,78.47C41.246,78.695 42.821,78.807 44.566,78.807L60.771,78.807C61.447,78.807 62.079,78.961 62.669,79.27C63.261,79.58 63.641,80.045 63.81,80.664Z" clip-rule="evenodd" fill-rule="evenodd" fill="#18C3D9"/>
</svg>
