<svg width="54" height="66" viewBox="0 0 54 66" fill="none" xmlns="http://www.w3.org/2000/svg" xmlns:xlink="http://www.w3.org/1999/xlink">
<path d="M49.483,16.67C50.743,15.41 51.437,13.737 51.437,11.957C51.437,10.177 50.743,8.503 49.483,7.243L44.197,1.957C42.937,0.697 41.263,0.003 39.483,0.003C37.703,0.003 36.03,0.697 34.773,1.953L-0.667,37.283L-0.667,52L14.043,52L49.483,16.67ZM39.483,6.67L44.773,11.953L39.473,17.233L34.187,11.95L39.483,6.67ZM6,45.333L6,40.05L29.467,16.657L34.753,21.943L11.29,45.333L6,45.333ZM-0.667,58.667L52.667,58.667L52.667,65.333L-0.667,65.333L-0.667,58.667Z" transform="rotate(0 26 32.668)" fill="#8E90A6"/>
</svg>
