<svg width="60" height="68" viewBox="0 0 60 68" fill="none" xmlns="http://www.w3.org/2000/svg" xmlns:xlink="http://www.w3.org/1999/xlink">
<path d="M40,0.667L20,0.667C16.323,0.667 13.333,3.657 13.333,7.333L13.333,14L0,14L0,20.667L6.667,20.667L6.667,60.667C6.667,64.343 9.657,67.333 13.333,67.333L46.667,67.333C50.343,67.333 53.333,64.343 53.333,60.667L53.333,20.667L60,20.667L60,14L46.667,14L46.667,7.333C46.667,3.657 43.677,0.667 40,0.667ZM20,7.333L40,7.333L40,14L20,14L20,7.333ZM46.667,60.667L13.333,60.667L13.333,20.667L46.667,20.667L46.667,60.667Z" transform="rotate(0 30 34)" fill="#EC4A4A"/>
</svg>
